<svg width="554" height="17" viewBox="0 0 554 17" fill="none" xmlns="http://www.w3.org/2000/svg">
<path d="M4.46094 13H2.03125L2.04688 11.4453H4.46094C5.16406 11.4453 5.7526 11.2917 6.22656 10.9844C6.70573 10.6771 7.0651 10.237 7.30469 9.66406C7.54948 9.09115 7.67188 8.40885 7.67188 7.61719V7C7.67188 6.38542 7.60156 5.84115 7.46094 5.36719C7.32552 4.89323 7.1224 4.49479 6.85156 4.17188C6.58594 3.84896 6.25781 3.60417 5.86719 3.4375C5.48177 3.27083 5.03646 3.1875 4.53125 3.1875H1.98438V1.625H4.53125C5.28646 1.625 5.97656 1.7526 6.60156 2.00781C7.22656 2.25781 7.76562 2.61979 8.21875 3.09375C8.67708 3.56771 9.02865 4.13542 9.27344 4.79688C9.51823 5.45833 9.64062 6.19792 9.64062 7.01562V7.61719C9.64062 8.4349 9.51823 9.17448 9.27344 9.83594C9.02865 10.4974 8.67708 11.0651 8.21875 11.5391C7.76042 12.0078 7.21354 12.3698 6.57812 12.625C5.94792 12.875 5.24219 13 4.46094 13ZM3.11719 1.625V13H1.15625V1.625H3.11719ZM15.1484 13.1562C14.5234 13.1562 13.9583 13.0547 13.4531 12.8516C12.9531 12.6432 12.526 12.3542 12.1719 11.9844C11.8229 11.6146 11.5547 11.1797 11.3672 10.6797C11.1797 10.1797 11.0859 9.64062 11.0859 9.0625V8.75C11.0859 8.08854 11.1823 7.48958 11.375 6.95312C11.5677 6.41667 11.8359 5.95833 12.1797 5.57812C12.5234 5.19271 12.9297 4.89844 13.3984 4.69531C13.8672 4.49219 14.375 4.39062 14.9219 4.39062C15.526 4.39062 16.0547 4.49219 16.5078 4.69531C16.9609 4.89844 17.3359 5.1849 17.6328 5.55469C17.9349 5.91927 18.1589 6.35417 18.3047 6.85938C18.4557 7.36458 18.5312 7.92188 18.5312 8.53125V9.33594H12V7.98438H16.6719V7.83594C16.6615 7.4974 16.5938 7.17969 16.4688 6.88281C16.349 6.58594 16.1641 6.34635 15.9141 6.16406C15.6641 5.98177 15.3307 5.89062 14.9141 5.89062C14.6016 5.89062 14.3229 5.95833 14.0781 6.09375C13.8385 6.22396 13.638 6.41406 13.4766 6.66406C13.3151 6.91406 13.1901 7.21615 13.1016 7.57031C13.0182 7.91927 12.9766 8.3125 12.9766 8.75V9.0625C12.9766 9.43229 13.026 9.77604 13.125 10.0938C13.2292 10.4062 13.3802 10.6797 13.5781 10.9141C13.776 11.1484 14.0156 11.3333 14.2969 11.4688C14.5781 11.599 14.8984 11.6641 15.2578 11.6641C15.7109 11.6641 16.1146 11.5729 16.4688 11.3906C16.8229 11.2083 17.1302 10.9505 17.3906 10.6172L18.3828 11.5781C18.2005 11.8438 17.9635 12.099 17.6719 12.3438C17.3802 12.5833 17.0234 12.7786 16.6016 12.9297C16.1849 13.0807 15.7005 13.1562 15.1484 13.1562ZM21.8828 6.26562V13H20V4.54688H21.7734L21.8828 6.26562ZM21.5781 8.46094L20.9375 8.45312C20.9375 7.86979 21.0104 7.33073 21.1562 6.83594C21.3021 6.34115 21.5156 5.91146 21.7969 5.54688C22.0781 5.17708 22.4271 4.89323 22.8438 4.69531C23.2656 4.49219 23.7526 4.39062 24.3047 4.39062C24.6901 4.39062 25.0417 4.44792 25.3594 4.5625C25.6823 4.67188 25.9609 4.84635 26.1953 5.08594C26.4349 5.32552 26.6172 5.63281 26.7422 6.00781C26.8724 6.38281 26.9375 6.83594 26.9375 7.36719V13H25.0547V7.53125C25.0547 7.11979 24.9922 6.79688 24.8672 6.5625C24.7474 6.32812 24.5729 6.16146 24.3438 6.0625C24.1198 5.95833 23.8516 5.90625 23.5391 5.90625C23.1849 5.90625 22.8828 5.97396 22.6328 6.10938C22.388 6.24479 22.1875 6.42969 22.0312 6.66406C21.875 6.89844 21.7604 7.16927 21.6875 7.47656C21.6146 7.78385 21.5781 8.11198 21.5781 8.46094ZM26.8203 7.96094L25.9375 8.15625C25.9375 7.64583 26.0078 7.16406 26.1484 6.71094C26.2943 6.2526 26.5052 5.85156 26.7812 5.50781C27.0625 5.15885 27.4089 4.88542 27.8203 4.6875C28.2318 4.48958 28.7031 4.39062 29.2344 4.39062C29.6667 4.39062 30.0521 4.45052 30.3906 4.57031C30.7344 4.6849 31.026 4.86719 31.2656 5.11719C31.5052 5.36719 31.6875 5.69271 31.8125 6.09375C31.9375 6.48958 32 6.96875 32 7.53125V13H30.1094V7.52344C30.1094 7.09635 30.0469 6.76562 29.9219 6.53125C29.8021 6.29688 29.6302 6.13542 29.4062 6.04688C29.1823 5.95312 28.9141 5.90625 28.6016 5.90625C28.3099 5.90625 28.0521 5.96094 27.8281 6.07031C27.6094 6.17448 27.4245 6.32292 27.2734 6.51562C27.1224 6.70312 27.0078 6.91927 26.9297 7.16406C26.8568 7.40885 26.8203 7.67448 26.8203 7.96094ZM33.5781 8.86719V8.6875C33.5781 8.07812 33.6667 7.51302 33.8438 6.99219C34.0208 6.46615 34.276 6.01042 34.6094 5.625C34.9479 5.23438 35.3594 4.93229 35.8438 4.71875C36.3333 4.5 36.8854 4.39062 37.5 4.39062C38.1198 4.39062 38.6719 4.5 39.1562 4.71875C39.6458 4.93229 40.0599 5.23438 40.3984 5.625C40.737 6.01042 40.9948 6.46615 41.1719 6.99219C41.349 7.51302 41.4375 8.07812 41.4375 8.6875V8.86719C41.4375 9.47656 41.349 10.0417 41.1719 10.5625C40.9948 11.0833 40.737 11.5391 40.3984 11.9297C40.0599 12.3151 39.6484 12.6172 39.1641 12.8359C38.6797 13.0495 38.1302 13.1562 37.5156 13.1562C36.8958 13.1562 36.3411 13.0495 35.8516 12.8359C35.3672 12.6172 34.9557 12.3151 34.6172 11.9297C34.2786 11.5391 34.0208 11.0833 33.8438 10.5625C33.6667 10.0417 33.5781 9.47656 33.5781 8.86719ZM35.4609 8.6875V8.86719C35.4609 9.2474 35.5 9.60677 35.5781 9.94531C35.6562 10.2839 35.7786 10.5807 35.9453 10.8359C36.112 11.0911 36.3255 11.2917 36.5859 11.4375C36.8464 11.5833 37.1562 11.6562 37.5156 11.6562C37.8646 11.6562 38.1667 11.5833 38.4219 11.4375C38.6823 11.2917 38.8958 11.0911 39.0625 10.8359C39.2292 10.5807 39.3516 10.2839 39.4297 9.94531C39.513 9.60677 39.5547 9.2474 39.5547 8.86719V8.6875C39.5547 8.3125 39.513 7.95833 39.4297 7.625C39.3516 7.28646 39.2266 6.98698 39.0547 6.72656C38.888 6.46615 38.6745 6.26302 38.4141 6.11719C38.1589 5.96615 37.8542 5.89062 37.5 5.89062C37.1458 5.89062 36.8385 5.96615 36.5781 6.11719C36.3229 6.26302 36.112 6.46615 35.9453 6.72656C35.7786 6.98698 35.6562 7.28646 35.5781 7.625C35.5 7.95833 35.4609 8.3125 35.4609 8.6875ZM47.7578 10.7109C47.7578 10.5234 47.7109 10.3542 47.6172 10.2031C47.5234 10.0469 47.3438 9.90625 47.0781 9.78125C46.8177 9.65625 46.4323 9.54167 45.9219 9.4375C45.474 9.33854 45.0625 9.22135 44.6875 9.08594C44.3177 8.94531 44 8.77604 43.7344 8.57812C43.4688 8.38021 43.263 8.14583 43.1172 7.875C42.9714 7.60417 42.8984 7.29167 42.8984 6.9375C42.8984 6.59375 42.974 6.26823 43.125 5.96094C43.276 5.65365 43.4922 5.38281 43.7734 5.14844C44.0547 4.91406 44.3958 4.72917 44.7969 4.59375C45.2031 4.45833 45.6562 4.39062 46.1562 4.39062C46.8646 4.39062 47.4714 4.51042 47.9766 4.75C48.487 4.98438 48.8776 5.30469 49.1484 5.71094C49.4193 6.11198 49.5547 6.5651 49.5547 7.07031H47.6719C47.6719 6.84635 47.6146 6.63802 47.5 6.44531C47.3906 6.2474 47.224 6.08854 47 5.96875C46.776 5.84375 46.4948 5.78125 46.1562 5.78125C45.8333 5.78125 45.5651 5.83333 45.3516 5.9375C45.1432 6.03646 44.987 6.16667 44.8828 6.32812C44.7839 6.48958 44.7344 6.66667 44.7344 6.85938C44.7344 7 44.7604 7.1276 44.8125 7.24219C44.8698 7.35156 44.9635 7.45312 45.0938 7.54688C45.224 7.63542 45.401 7.71875 45.625 7.79688C45.8542 7.875 46.1406 7.95052 46.4844 8.02344C47.1302 8.15885 47.6849 8.33333 48.1484 8.54688C48.6172 8.75521 48.9766 9.02604 49.2266 9.35938C49.4766 9.6875 49.6016 10.1042 49.6016 10.6094C49.6016 10.9844 49.5208 11.3281 49.3594 11.6406C49.2031 11.9479 48.974 12.2161 48.6719 12.4453C48.3698 12.6693 48.0078 12.8438 47.5859 12.9688C47.1693 13.0938 46.7005 13.1562 46.1797 13.1562C45.4141 13.1562 44.7656 13.0208 44.2344 12.75C43.7031 12.474 43.2995 12.1224 43.0234 11.6953C42.7526 11.263 42.6172 10.8151 42.6172 10.3516H44.4375C44.4583 10.7005 44.5547 10.9792 44.7266 11.1875C44.9036 11.3906 45.1224 11.5391 45.3828 11.6328C45.6484 11.7214 45.9219 11.7656 46.2031 11.7656C46.5417 11.7656 46.8255 11.7214 47.0547 11.6328C47.2839 11.5391 47.4583 11.4141 47.5781 11.2578C47.6979 11.0964 47.7578 10.9141 47.7578 10.7109Z" fill="black"/>
<path d="M56 6L60 10L64 6" stroke="black" stroke-linecap="square"/>
<path d="M101.977 8.75781H99.0156V7.20312H101.977C102.492 7.20312 102.909 7.11979 103.227 6.95312C103.544 6.78646 103.776 6.55729 103.922 6.26562C104.073 5.96875 104.148 5.63021 104.148 5.25C104.148 4.89062 104.073 4.55469 103.922 4.24219C103.776 3.92448 103.544 3.66927 103.227 3.47656C102.909 3.28385 102.492 3.1875 101.977 3.1875H99.6172V13H97.6562V1.625H101.977C102.857 1.625 103.604 1.78125 104.219 2.09375C104.839 2.40104 105.31 2.82812 105.633 3.375C105.956 3.91667 106.117 4.53646 106.117 5.23438C106.117 5.96875 105.956 6.59896 105.633 7.125C105.31 7.65104 104.839 8.05469 104.219 8.33594C103.604 8.61719 102.857 8.75781 101.977 8.75781ZM107.219 8.86719V8.6875C107.219 8.07812 107.307 7.51302 107.484 6.99219C107.661 6.46615 107.917 6.01042 108.25 5.625C108.589 5.23438 109 4.93229 109.484 4.71875C109.974 4.5 110.526 4.39062 111.141 4.39062C111.76 4.39062 112.312 4.5 112.797 4.71875C113.286 4.93229 113.701 5.23438 114.039 5.625C114.378 6.01042 114.635 6.46615 114.812 6.99219C114.99 7.51302 115.078 8.07812 115.078 8.6875V8.86719C115.078 9.47656 114.99 10.0417 114.812 10.5625C114.635 11.0833 114.378 11.5391 114.039 11.9297C113.701 12.3151 113.289 12.6172 112.805 12.8359C112.32 13.0495 111.771 13.1562 111.156 13.1562C110.536 13.1562 109.982 13.0495 109.492 12.8359C109.008 12.6172 108.596 12.3151 108.258 11.9297C107.919 11.5391 107.661 11.0833 107.484 10.5625C107.307 10.0417 107.219 9.47656 107.219 8.86719ZM109.102 8.6875V8.86719C109.102 9.2474 109.141 9.60677 109.219 9.94531C109.297 10.2839 109.419 10.5807 109.586 10.8359C109.753 11.0911 109.966 11.2917 110.227 11.4375C110.487 11.5833 110.797 11.6562 111.156 11.6562C111.505 11.6562 111.807 11.5833 112.062 11.4375C112.323 11.2917 112.536 11.0911 112.703 10.8359C112.87 10.5807 112.992 10.2839 113.07 9.94531C113.154 9.60677 113.195 9.2474 113.195 8.86719V8.6875C113.195 8.3125 113.154 7.95833 113.07 7.625C112.992 7.28646 112.867 6.98698 112.695 6.72656C112.529 6.46615 112.315 6.26302 112.055 6.11719C111.799 5.96615 111.495 5.89062 111.141 5.89062C110.786 5.89062 110.479 5.96615 110.219 6.11719C109.964 6.26302 109.753 6.46615 109.586 6.72656C109.419 6.98698 109.297 7.28646 109.219 7.625C109.141 7.95833 109.102 8.3125 109.102 8.6875ZM121.398 10.7109C121.398 10.5234 121.352 10.3542 121.258 10.2031C121.164 10.0469 120.984 9.90625 120.719 9.78125C120.458 9.65625 120.073 9.54167 119.562 9.4375C119.115 9.33854 118.703 9.22135 118.328 9.08594C117.958 8.94531 117.641 8.77604 117.375 8.57812C117.109 8.38021 116.904 8.14583 116.758 7.875C116.612 7.60417 116.539 7.29167 116.539 6.9375C116.539 6.59375 116.615 6.26823 116.766 5.96094C116.917 5.65365 117.133 5.38281 117.414 5.14844C117.695 4.91406 118.036 4.72917 118.438 4.59375C118.844 4.45833 119.297 4.39062 119.797 4.39062C120.505 4.39062 121.112 4.51042 121.617 4.75C122.128 4.98438 122.518 5.30469 122.789 5.71094C123.06 6.11198 123.195 6.5651 123.195 7.07031H121.312C121.312 6.84635 121.255 6.63802 121.141 6.44531C121.031 6.2474 120.865 6.08854 120.641 5.96875C120.417 5.84375 120.135 5.78125 119.797 5.78125C119.474 5.78125 119.206 5.83333 118.992 5.9375C118.784 6.03646 118.628 6.16667 118.523 6.32812C118.424 6.48958 118.375 6.66667 118.375 6.85938C118.375 7 118.401 7.1276 118.453 7.24219C118.51 7.35156 118.604 7.45312 118.734 7.54688C118.865 7.63542 119.042 7.71875 119.266 7.79688C119.495 7.875 119.781 7.95052 120.125 8.02344C120.771 8.15885 121.326 8.33333 121.789 8.54688C122.258 8.75521 122.617 9.02604 122.867 9.35938C123.117 9.6875 123.242 10.1042 123.242 10.6094C123.242 10.9844 123.161 11.3281 123 11.6406C122.844 11.9479 122.615 12.2161 122.312 12.4453C122.01 12.6693 121.648 12.8438 121.227 12.9688C120.81 13.0938 120.341 13.1562 119.82 13.1562C119.055 13.1562 118.406 13.0208 117.875 12.75C117.344 12.474 116.94 12.1224 116.664 11.6953C116.393 11.263 116.258 10.8151 116.258 10.3516H118.078C118.099 10.7005 118.195 10.9792 118.367 11.1875C118.544 11.3906 118.763 11.5391 119.023 11.6328C119.289 11.7214 119.562 11.7656 119.844 11.7656C120.182 11.7656 120.466 11.7214 120.695 11.6328C120.924 11.5391 121.099 11.4141 121.219 11.2578C121.339 11.0964 121.398 10.9141 121.398 10.7109ZM128.766 4.54688V5.92188H124V4.54688H128.766ZM125.375 2.47656H127.258V10.6641C127.258 10.9245 127.294 11.125 127.367 11.2656C127.445 11.401 127.552 11.4922 127.688 11.5391C127.823 11.5859 127.982 11.6094 128.164 11.6094C128.294 11.6094 128.419 11.6016 128.539 11.5859C128.659 11.5703 128.755 11.5547 128.828 11.5391L128.836 12.9766C128.68 13.0234 128.497 13.0651 128.289 13.1016C128.086 13.138 127.852 13.1562 127.586 13.1562C127.154 13.1562 126.771 13.0807 126.438 12.9297C126.104 12.7734 125.844 12.5208 125.656 12.1719C125.469 11.8229 125.375 11.3594 125.375 10.7812V2.47656Z" fill="black"/>
<path d="M134.5 6L138.5 10L142.5 6" stroke="black" stroke-linecap="square"/>
<path d="M178.117 1.625V13H176.156V1.625H178.117ZM182.758 6.60156V8.15625H177.617V6.60156H182.758ZM183.406 1.625V3.1875H177.617V1.625H183.406ZM188.336 13.1562C187.711 13.1562 187.146 13.0547 186.641 12.8516C186.141 12.6432 185.714 12.3542 185.359 11.9844C185.01 11.6146 184.742 11.1797 184.555 10.6797C184.367 10.1797 184.273 9.64062 184.273 9.0625V8.75C184.273 8.08854 184.37 7.48958 184.562 6.95312C184.755 6.41667 185.023 5.95833 185.367 5.57812C185.711 5.19271 186.117 4.89844 186.586 4.69531C187.055 4.49219 187.562 4.39062 188.109 4.39062C188.714 4.39062 189.242 4.49219 189.695 4.69531C190.148 4.89844 190.523 5.1849 190.82 5.55469C191.122 5.91927 191.346 6.35417 191.492 6.85938C191.643 7.36458 191.719 7.92188 191.719 8.53125V9.33594H185.188V7.98438H189.859V7.83594C189.849 7.4974 189.781 7.17969 189.656 6.88281C189.536 6.58594 189.352 6.34635 189.102 6.16406C188.852 5.98177 188.518 5.89062 188.102 5.89062C187.789 5.89062 187.51 5.95833 187.266 6.09375C187.026 6.22396 186.826 6.41406 186.664 6.66406C186.503 6.91406 186.378 7.21615 186.289 7.57031C186.206 7.91927 186.164 8.3125 186.164 8.75V9.0625C186.164 9.43229 186.214 9.77604 186.312 10.0938C186.417 10.4062 186.568 10.6797 186.766 10.9141C186.964 11.1484 187.203 11.3333 187.484 11.4688C187.766 11.599 188.086 11.6641 188.445 11.6641C188.898 11.6641 189.302 11.5729 189.656 11.3906C190.01 11.2083 190.318 10.9505 190.578 10.6172L191.57 11.5781C191.388 11.8438 191.151 12.099 190.859 12.3438C190.568 12.5833 190.211 12.7786 189.789 12.9297C189.372 13.0807 188.888 13.1562 188.336 13.1562ZM197.953 11.3047V7.27344C197.953 6.97135 197.898 6.71094 197.789 6.49219C197.68 6.27344 197.513 6.10417 197.289 5.98438C197.07 5.86458 196.794 5.80469 196.461 5.80469C196.154 5.80469 195.888 5.85677 195.664 5.96094C195.44 6.0651 195.266 6.20573 195.141 6.38281C195.016 6.5599 194.953 6.76042 194.953 6.98438H193.078C193.078 6.65104 193.159 6.32812 193.32 6.01562C193.482 5.70312 193.716 5.42448 194.023 5.17969C194.331 4.9349 194.698 4.74219 195.125 4.60156C195.552 4.46094 196.031 4.39062 196.562 4.39062C197.198 4.39062 197.76 4.4974 198.25 4.71094C198.745 4.92448 199.133 5.2474 199.414 5.67969C199.701 6.10677 199.844 6.64323 199.844 7.28906V11.0469C199.844 11.4323 199.87 11.7786 199.922 12.0859C199.979 12.388 200.06 12.651 200.164 12.875V13H198.234C198.146 12.7969 198.076 12.5391 198.023 12.2266C197.977 11.9089 197.953 11.6016 197.953 11.3047ZM198.227 7.85938L198.242 9.02344H196.891C196.542 9.02344 196.234 9.05729 195.969 9.125C195.703 9.1875 195.482 9.28125 195.305 9.40625C195.128 9.53125 194.995 9.68229 194.906 9.85938C194.818 10.0365 194.773 10.237 194.773 10.4609C194.773 10.6849 194.826 10.8906 194.93 11.0781C195.034 11.2604 195.185 11.4036 195.383 11.5078C195.586 11.612 195.831 11.6641 196.117 11.6641C196.503 11.6641 196.839 11.5859 197.125 11.4297C197.417 11.2682 197.646 11.0729 197.812 10.8438C197.979 10.6094 198.068 10.388 198.078 10.1797L198.688 11.0156C198.625 11.2292 198.518 11.4583 198.367 11.7031C198.216 11.9479 198.018 12.1823 197.773 12.4062C197.534 12.625 197.245 12.8047 196.906 12.9453C196.573 13.0859 196.188 13.1562 195.75 13.1562C195.198 13.1562 194.706 13.0469 194.273 12.8281C193.841 12.6042 193.503 12.3047 193.258 11.9297C193.013 11.5495 192.891 11.1198 192.891 10.6406C192.891 10.1927 192.974 9.79688 193.141 9.45312C193.312 9.10417 193.562 8.8125 193.891 8.57812C194.224 8.34375 194.63 8.16667 195.109 8.04688C195.589 7.92188 196.135 7.85938 196.75 7.85938H198.227ZM205.688 4.54688V5.92188H200.922V4.54688H205.688ZM202.297 2.47656H204.18V10.6641C204.18 10.9245 204.216 11.125 204.289 11.2656C204.367 11.401 204.474 11.4922 204.609 11.5391C204.745 11.5859 204.904 11.6094 205.086 11.6094C205.216 11.6094 205.341 11.6016 205.461 11.5859C205.581 11.5703 205.677 11.5547 205.75 11.5391L205.758 12.9766C205.602 13.0234 205.419 13.0651 205.211 13.1016C205.008 13.138 204.773 13.1562 204.508 13.1562C204.076 13.1562 203.693 13.0807 203.359 12.9297C203.026 12.7734 202.766 12.5208 202.578 12.1719C202.391 11.8229 202.297 11.3594 202.297 10.7812V2.47656ZM212.227 11.0078V4.54688H214.117V13H212.336L212.227 11.0078ZM212.492 9.25L213.125 9.23438C213.125 9.80208 213.062 10.3255 212.938 10.8047C212.812 11.2786 212.62 11.6927 212.359 12.0469C212.099 12.3958 211.766 12.6693 211.359 12.8672C210.953 13.0599 210.466 13.1562 209.898 13.1562C209.487 13.1562 209.109 13.0964 208.766 12.9766C208.422 12.8568 208.125 12.6719 207.875 12.4219C207.63 12.1719 207.44 11.8464 207.305 11.4453C207.169 11.0443 207.102 10.5651 207.102 10.0078V4.54688H208.984V10.0234C208.984 10.3307 209.021 10.5885 209.094 10.7969C209.167 11 209.266 11.1641 209.391 11.2891C209.516 11.4141 209.661 11.5026 209.828 11.5547C209.995 11.6068 210.172 11.6328 210.359 11.6328C210.896 11.6328 211.318 11.5286 211.625 11.3203C211.938 11.1068 212.159 10.8203 212.289 10.4609C212.424 10.1016 212.492 9.69792 212.492 9.25ZM217.938 6.15625V13H216.055V4.54688H217.852L217.938 6.15625ZM220.523 4.49219L220.508 6.24219C220.393 6.22135 220.268 6.20573 220.133 6.19531C220.003 6.1849 219.872 6.17969 219.742 6.17969C219.419 6.17969 219.135 6.22656 218.891 6.32031C218.646 6.40885 218.44 6.53906 218.273 6.71094C218.112 6.8776 217.987 7.08073 217.898 7.32031C217.81 7.5599 217.758 7.82812 217.742 8.125L217.312 8.15625C217.312 7.625 217.365 7.13281 217.469 6.67969C217.573 6.22656 217.729 5.82812 217.938 5.48438C218.151 5.14062 218.417 4.8724 218.734 4.67969C219.057 4.48698 219.43 4.39062 219.852 4.39062C219.966 4.39062 220.089 4.40104 220.219 4.42188C220.354 4.44271 220.456 4.46615 220.523 4.49219ZM225.273 13.1562C224.648 13.1562 224.083 13.0547 223.578 12.8516C223.078 12.6432 222.651 12.3542 222.297 11.9844C221.948 11.6146 221.68 11.1797 221.492 10.6797C221.305 10.1797 221.211 9.64062 221.211 9.0625V8.75C221.211 8.08854 221.307 7.48958 221.5 6.95312C221.693 6.41667 221.961 5.95833 222.305 5.57812C222.648 5.19271 223.055 4.89844 223.523 4.69531C223.992 4.49219 224.5 4.39062 225.047 4.39062C225.651 4.39062 226.18 4.49219 226.633 4.69531C227.086 4.89844 227.461 5.1849 227.758 5.55469C228.06 5.91927 228.284 6.35417 228.43 6.85938C228.581 7.36458 228.656 7.92188 228.656 8.53125V9.33594H222.125V7.98438H226.797V7.83594C226.786 7.4974 226.719 7.17969 226.594 6.88281C226.474 6.58594 226.289 6.34635 226.039 6.16406C225.789 5.98177 225.456 5.89062 225.039 5.89062C224.727 5.89062 224.448 5.95833 224.203 6.09375C223.964 6.22396 223.763 6.41406 223.602 6.66406C223.44 6.91406 223.315 7.21615 223.227 7.57031C223.143 7.91927 223.102 8.3125 223.102 8.75V9.0625C223.102 9.43229 223.151 9.77604 223.25 10.0938C223.354 10.4062 223.505 10.6797 223.703 10.9141C223.901 11.1484 224.141 11.3333 224.422 11.4688C224.703 11.599 225.023 11.6641 225.383 11.6641C225.836 11.6641 226.24 11.5729 226.594 11.3906C226.948 11.2083 227.255 10.9505 227.516 10.6172L228.508 11.5781C228.326 11.8438 228.089 12.099 227.797 12.3438C227.505 12.5833 227.148 12.7786 226.727 12.9297C226.31 13.0807 225.826 13.1562 225.273 13.1562ZM234.867 10.7109C234.867 10.5234 234.82 10.3542 234.727 10.2031C234.633 10.0469 234.453 9.90625 234.188 9.78125C233.927 9.65625 233.542 9.54167 233.031 9.4375C232.583 9.33854 232.172 9.22135 231.797 9.08594C231.427 8.94531 231.109 8.77604 230.844 8.57812C230.578 8.38021 230.372 8.14583 230.227 7.875C230.081 7.60417 230.008 7.29167 230.008 6.9375C230.008 6.59375 230.083 6.26823 230.234 5.96094C230.385 5.65365 230.602 5.38281 230.883 5.14844C231.164 4.91406 231.505 4.72917 231.906 4.59375C232.312 4.45833 232.766 4.39062 233.266 4.39062C233.974 4.39062 234.581 4.51042 235.086 4.75C235.596 4.98438 235.987 5.30469 236.258 5.71094C236.529 6.11198 236.664 6.5651 236.664 7.07031H234.781C234.781 6.84635 234.724 6.63802 234.609 6.44531C234.5 6.2474 234.333 6.08854 234.109 5.96875C233.885 5.84375 233.604 5.78125 233.266 5.78125C232.943 5.78125 232.674 5.83333 232.461 5.9375C232.253 6.03646 232.096 6.16667 231.992 6.32812C231.893 6.48958 231.844 6.66667 231.844 6.85938C231.844 7 231.87 7.1276 231.922 7.24219C231.979 7.35156 232.073 7.45312 232.203 7.54688C232.333 7.63542 232.51 7.71875 232.734 7.79688C232.964 7.875 233.25 7.95052 233.594 8.02344C234.24 8.15885 234.794 8.33333 235.258 8.54688C235.727 8.75521 236.086 9.02604 236.336 9.35938C236.586 9.6875 236.711 10.1042 236.711 10.6094C236.711 10.9844 236.63 11.3281 236.469 11.6406C236.312 11.9479 236.083 12.2161 235.781 12.4453C235.479 12.6693 235.117 12.8438 234.695 12.9688C234.279 13.0938 233.81 13.1562 233.289 13.1562C232.523 13.1562 231.875 13.0208 231.344 12.75C230.812 12.474 230.409 12.1224 230.133 11.6953C229.862 11.263 229.727 10.8151 229.727 10.3516H231.547C231.568 10.7005 231.664 10.9792 231.836 11.1875C232.013 11.3906 232.232 11.5391 232.492 11.6328C232.758 11.7214 233.031 11.7656 233.312 11.7656C233.651 11.7656 233.935 11.7214 234.164 11.6328C234.393 11.5391 234.568 11.4141 234.688 11.2578C234.807 11.0964 234.867 10.9141 234.867 10.7109Z" fill="black"/>
<path d="M243 6L247 10L251 6" stroke="black" stroke-linecap="square"/>
<path d="M291.375 9.29688H293.328C293.266 10.0417 293.057 10.7057 292.703 11.2891C292.349 11.8672 291.852 12.3229 291.211 12.6562C290.57 12.9896 289.792 13.1562 288.875 13.1562C288.172 13.1562 287.539 13.0312 286.977 12.7812C286.414 12.526 285.932 12.1667 285.531 11.7031C285.13 11.2344 284.823 10.6693 284.609 10.0078C284.401 9.34635 284.297 8.60677 284.297 7.78906V6.84375C284.297 6.02604 284.404 5.28646 284.617 4.625C284.836 3.96354 285.148 3.39844 285.555 2.92969C285.961 2.45573 286.448 2.09375 287.016 1.84375C287.589 1.59375 288.232 1.46875 288.945 1.46875C289.852 1.46875 290.617 1.63542 291.242 1.96875C291.867 2.30208 292.352 2.76302 292.695 3.35156C293.044 3.9401 293.258 4.61458 293.336 5.375H291.383C291.331 4.88542 291.216 4.46615 291.039 4.11719C290.867 3.76823 290.612 3.5026 290.273 3.32031C289.935 3.13281 289.492 3.03906 288.945 3.03906C288.497 3.03906 288.107 3.1224 287.773 3.28906C287.44 3.45573 287.161 3.70052 286.938 4.02344C286.714 4.34635 286.544 4.74479 286.43 5.21875C286.32 5.6875 286.266 6.22396 286.266 6.82812V7.78906C286.266 8.36198 286.315 8.88281 286.414 9.35156C286.518 9.8151 286.674 10.2135 286.883 10.5469C287.096 10.8802 287.367 11.138 287.695 11.3203C288.023 11.5026 288.417 11.5938 288.875 11.5938C289.432 11.5938 289.883 11.5052 290.227 11.3281C290.576 11.151 290.839 10.8932 291.016 10.5547C291.198 10.2109 291.318 9.79167 291.375 9.29688ZM299.688 11.3047V7.27344C299.688 6.97135 299.633 6.71094 299.523 6.49219C299.414 6.27344 299.247 6.10417 299.023 5.98438C298.805 5.86458 298.529 5.80469 298.195 5.80469C297.888 5.80469 297.622 5.85677 297.398 5.96094C297.174 6.0651 297 6.20573 296.875 6.38281C296.75 6.5599 296.688 6.76042 296.688 6.98438H294.812C294.812 6.65104 294.893 6.32812 295.055 6.01562C295.216 5.70312 295.451 5.42448 295.758 5.17969C296.065 4.9349 296.432 4.74219 296.859 4.60156C297.286 4.46094 297.766 4.39062 298.297 4.39062C298.932 4.39062 299.495 4.4974 299.984 4.71094C300.479 4.92448 300.867 5.2474 301.148 5.67969C301.435 6.10677 301.578 6.64323 301.578 7.28906V11.0469C301.578 11.4323 301.604 11.7786 301.656 12.0859C301.714 12.388 301.794 12.651 301.898 12.875V13H299.969C299.88 12.7969 299.81 12.5391 299.758 12.2266C299.711 11.9089 299.688 11.6016 299.688 11.3047ZM299.961 7.85938L299.977 9.02344H298.625C298.276 9.02344 297.969 9.05729 297.703 9.125C297.438 9.1875 297.216 9.28125 297.039 9.40625C296.862 9.53125 296.729 9.68229 296.641 9.85938C296.552 10.0365 296.508 10.237 296.508 10.4609C296.508 10.6849 296.56 10.8906 296.664 11.0781C296.768 11.2604 296.919 11.4036 297.117 11.5078C297.32 11.612 297.565 11.6641 297.852 11.6641C298.237 11.6641 298.573 11.5859 298.859 11.4297C299.151 11.2682 299.38 11.0729 299.547 10.8438C299.714 10.6094 299.802 10.388 299.812 10.1797L300.422 11.0156C300.359 11.2292 300.253 11.4583 300.102 11.7031C299.951 11.9479 299.753 12.1823 299.508 12.4062C299.268 12.625 298.979 12.8047 298.641 12.9453C298.307 13.0859 297.922 13.1562 297.484 13.1562C296.932 13.1562 296.44 13.0469 296.008 12.8281C295.576 12.6042 295.237 12.3047 294.992 11.9297C294.747 11.5495 294.625 11.1198 294.625 10.6406C294.625 10.1927 294.708 9.79688 294.875 9.45312C295.047 9.10417 295.297 8.8125 295.625 8.57812C295.958 8.34375 296.365 8.16667 296.844 8.04688C297.323 7.92188 297.87 7.85938 298.484 7.85938H299.961ZM307.422 4.54688V5.92188H302.656V4.54688H307.422ZM304.031 2.47656H305.914V10.6641C305.914 10.9245 305.951 11.125 306.023 11.2656C306.102 11.401 306.208 11.4922 306.344 11.5391C306.479 11.5859 306.638 11.6094 306.82 11.6094C306.951 11.6094 307.076 11.6016 307.195 11.5859C307.315 11.5703 307.411 11.5547 307.484 11.5391L307.492 12.9766C307.336 13.0234 307.154 13.0651 306.945 13.1016C306.742 13.138 306.508 13.1562 306.242 13.1562C305.81 13.1562 305.427 13.0807 305.094 12.9297C304.76 12.7734 304.5 12.5208 304.312 12.1719C304.125 11.8229 304.031 11.3594 304.031 10.7812V2.47656ZM312.602 13.1562C311.977 13.1562 311.411 13.0547 310.906 12.8516C310.406 12.6432 309.979 12.3542 309.625 11.9844C309.276 11.6146 309.008 11.1797 308.82 10.6797C308.633 10.1797 308.539 9.64062 308.539 9.0625V8.75C308.539 8.08854 308.635 7.48958 308.828 6.95312C309.021 6.41667 309.289 5.95833 309.633 5.57812C309.977 5.19271 310.383 4.89844 310.852 4.69531C311.32 4.49219 311.828 4.39062 312.375 4.39062C312.979 4.39062 313.508 4.49219 313.961 4.69531C314.414 4.89844 314.789 5.1849 315.086 5.55469C315.388 5.91927 315.612 6.35417 315.758 6.85938C315.909 7.36458 315.984 7.92188 315.984 8.53125V9.33594H309.453V7.98438H314.125V7.83594C314.115 7.4974 314.047 7.17969 313.922 6.88281C313.802 6.58594 313.617 6.34635 313.367 6.16406C313.117 5.98177 312.784 5.89062 312.367 5.89062C312.055 5.89062 311.776 5.95833 311.531 6.09375C311.292 6.22396 311.091 6.41406 310.93 6.66406C310.768 6.91406 310.643 7.21615 310.555 7.57031C310.471 7.91927 310.43 8.3125 310.43 8.75V9.0625C310.43 9.43229 310.479 9.77604 310.578 10.0938C310.682 10.4062 310.833 10.6797 311.031 10.9141C311.229 11.1484 311.469 11.3333 311.75 11.4688C312.031 11.599 312.352 11.6641 312.711 11.6641C313.164 11.6641 313.568 11.5729 313.922 11.3906C314.276 11.2083 314.583 10.9505 314.844 10.6172L315.836 11.5781C315.654 11.8438 315.417 12.099 315.125 12.3438C314.833 12.5833 314.477 12.7786 314.055 12.9297C313.638 13.0807 313.154 13.1562 312.602 13.1562ZM322.867 4.54688H324.578V12.7656C324.578 13.526 324.417 14.1719 324.094 14.7031C323.771 15.2344 323.32 15.638 322.742 15.9141C322.164 16.1953 321.495 16.3359 320.734 16.3359C320.411 16.3359 320.052 16.2891 319.656 16.1953C319.266 16.1016 318.885 15.9505 318.516 15.7422C318.151 15.5391 317.846 15.2708 317.602 14.9375L318.484 13.8281C318.786 14.1875 319.12 14.4505 319.484 14.6172C319.849 14.7839 320.232 14.8672 320.633 14.8672C321.065 14.8672 321.432 14.7865 321.734 14.625C322.042 14.4688 322.279 14.237 322.445 13.9297C322.612 13.6224 322.695 13.2474 322.695 12.8047V6.46094L322.867 4.54688ZM317.125 8.86719V8.70312C317.125 8.0625 317.203 7.47917 317.359 6.95312C317.516 6.42188 317.74 5.96615 318.031 5.58594C318.323 5.20052 318.677 4.90625 319.094 4.70312C319.51 4.49479 319.982 4.39062 320.508 4.39062C321.055 4.39062 321.521 4.48958 321.906 4.6875C322.297 4.88542 322.622 5.16927 322.883 5.53906C323.143 5.90365 323.346 6.34115 323.492 6.85156C323.643 7.35677 323.755 7.91927 323.828 8.53906V9.0625C323.76 9.66667 323.646 10.2188 323.484 10.7188C323.323 11.2188 323.109 11.651 322.844 12.0156C322.578 12.3802 322.25 12.6615 321.859 12.8594C321.474 13.0573 321.018 13.1562 320.492 13.1562C319.977 13.1562 319.51 13.0495 319.094 12.8359C318.682 12.6224 318.328 12.3229 318.031 11.9375C317.74 11.5521 317.516 11.099 317.359 10.5781C317.203 10.0521 317.125 9.48177 317.125 8.86719ZM319.008 8.70312V8.86719C319.008 9.2526 319.044 9.61198 319.117 9.94531C319.195 10.2786 319.312 10.5729 319.469 10.8281C319.63 11.0781 319.833 11.276 320.078 11.4219C320.328 11.5625 320.622 11.6328 320.961 11.6328C321.404 11.6328 321.766 11.5391 322.047 11.3516C322.333 11.1641 322.552 10.9115 322.703 10.5938C322.859 10.2708 322.969 9.91146 323.031 9.51562V8.10156C323 7.79427 322.935 7.50781 322.836 7.24219C322.742 6.97656 322.615 6.74479 322.453 6.54688C322.292 6.34375 322.089 6.1875 321.844 6.07812C321.599 5.96354 321.31 5.90625 320.977 5.90625C320.638 5.90625 320.344 5.97917 320.094 6.125C319.844 6.27083 319.638 6.47135 319.477 6.72656C319.32 6.98177 319.203 7.27865 319.125 7.61719C319.047 7.95573 319.008 8.31771 319.008 8.70312ZM326.172 8.86719V8.6875C326.172 8.07812 326.26 7.51302 326.438 6.99219C326.615 6.46615 326.87 6.01042 327.203 5.625C327.542 5.23438 327.953 4.93229 328.438 4.71875C328.927 4.5 329.479 4.39062 330.094 4.39062C330.714 4.39062 331.266 4.5 331.75 4.71875C332.24 4.93229 332.654 5.23438 332.992 5.625C333.331 6.01042 333.589 6.46615 333.766 6.99219C333.943 7.51302 334.031 8.07812 334.031 8.6875V8.86719C334.031 9.47656 333.943 10.0417 333.766 10.5625C333.589 11.0833 333.331 11.5391 332.992 11.9297C332.654 12.3151 332.242 12.6172 331.758 12.8359C331.273 13.0495 330.724 13.1562 330.109 13.1562C329.49 13.1562 328.935 13.0495 328.445 12.8359C327.961 12.6172 327.549 12.3151 327.211 11.9297C326.872 11.5391 326.615 11.0833 326.438 10.5625C326.26 10.0417 326.172 9.47656 326.172 8.86719ZM328.055 8.6875V8.86719C328.055 9.2474 328.094 9.60677 328.172 9.94531C328.25 10.2839 328.372 10.5807 328.539 10.8359C328.706 11.0911 328.919 11.2917 329.18 11.4375C329.44 11.5833 329.75 11.6562 330.109 11.6562C330.458 11.6562 330.76 11.5833 331.016 11.4375C331.276 11.2917 331.49 11.0911 331.656 10.8359C331.823 10.5807 331.945 10.2839 332.023 9.94531C332.107 9.60677 332.148 9.2474 332.148 8.86719V8.6875C332.148 8.3125 332.107 7.95833 332.023 7.625C331.945 7.28646 331.82 6.98698 331.648 6.72656C331.482 6.46615 331.268 6.26302 331.008 6.11719C330.753 5.96615 330.448 5.89062 330.094 5.89062C329.74 5.89062 329.432 5.96615 329.172 6.11719C328.917 6.26302 328.706 6.46615 328.539 6.72656C328.372 6.98698 328.25 7.28646 328.172 7.625C328.094 7.95833 328.055 8.3125 328.055 8.6875ZM337.5 6.15625V13H335.617V4.54688H337.414L337.5 6.15625ZM340.086 4.49219L340.07 6.24219C339.956 6.22135 339.831 6.20573 339.695 6.19531C339.565 6.1849 339.435 6.17969 339.305 6.17969C338.982 6.17969 338.698 6.22656 338.453 6.32031C338.208 6.40885 338.003 6.53906 337.836 6.71094C337.674 6.8776 337.549 7.08073 337.461 7.32031C337.372 7.5599 337.32 7.82812 337.305 8.125L336.875 8.15625C336.875 7.625 336.927 7.13281 337.031 6.67969C337.135 6.22656 337.292 5.82812 337.5 5.48438C337.714 5.14062 337.979 4.8724 338.297 4.67969C338.62 4.48698 338.992 4.39062 339.414 4.39062C339.529 4.39062 339.651 4.40104 339.781 4.42188C339.917 4.44271 340.018 4.46615 340.086 4.49219ZM343.281 4.54688V13H341.391V4.54688H343.281ZM341.266 2.32812C341.266 2.04167 341.359 1.80469 341.547 1.61719C341.74 1.42448 342.005 1.32812 342.344 1.32812C342.677 1.32812 342.94 1.42448 343.133 1.61719C343.326 1.80469 343.422 2.04167 343.422 2.32812C343.422 2.60938 343.326 2.84375 343.133 3.03125C342.94 3.21875 342.677 3.3125 342.344 3.3125C342.005 3.3125 341.74 3.21875 341.547 3.03125C341.359 2.84375 341.266 2.60938 341.266 2.32812ZM349.07 13.1562C348.445 13.1562 347.88 13.0547 347.375 12.8516C346.875 12.6432 346.448 12.3542 346.094 11.9844C345.745 11.6146 345.477 11.1797 345.289 10.6797C345.102 10.1797 345.008 9.64062 345.008 9.0625V8.75C345.008 8.08854 345.104 7.48958 345.297 6.95312C345.49 6.41667 345.758 5.95833 346.102 5.57812C346.445 5.19271 346.852 4.89844 347.32 4.69531C347.789 4.49219 348.297 4.39062 348.844 4.39062C349.448 4.39062 349.977 4.49219 350.43 4.69531C350.883 4.89844 351.258 5.1849 351.555 5.55469C351.857 5.91927 352.081 6.35417 352.227 6.85938C352.378 7.36458 352.453 7.92188 352.453 8.53125V9.33594H345.922V7.98438H350.594V7.83594C350.583 7.4974 350.516 7.17969 350.391 6.88281C350.271 6.58594 350.086 6.34635 349.836 6.16406C349.586 5.98177 349.253 5.89062 348.836 5.89062C348.523 5.89062 348.245 5.95833 348 6.09375C347.76 6.22396 347.56 6.41406 347.398 6.66406C347.237 6.91406 347.112 7.21615 347.023 7.57031C346.94 7.91927 346.898 8.3125 346.898 8.75V9.0625C346.898 9.43229 346.948 9.77604 347.047 10.0938C347.151 10.4062 347.302 10.6797 347.5 10.9141C347.698 11.1484 347.938 11.3333 348.219 11.4688C348.5 11.599 348.82 11.6641 349.18 11.6641C349.633 11.6641 350.036 11.5729 350.391 11.3906C350.745 11.2083 351.052 10.9505 351.312 10.6172L352.305 11.5781C352.122 11.8438 351.885 12.099 351.594 12.3438C351.302 12.5833 350.945 12.7786 350.523 12.9297C350.107 13.0807 349.622 13.1562 349.07 13.1562ZM358.664 10.7109C358.664 10.5234 358.617 10.3542 358.523 10.2031C358.43 10.0469 358.25 9.90625 357.984 9.78125C357.724 9.65625 357.339 9.54167 356.828 9.4375C356.38 9.33854 355.969 9.22135 355.594 9.08594C355.224 8.94531 354.906 8.77604 354.641 8.57812C354.375 8.38021 354.169 8.14583 354.023 7.875C353.878 7.60417 353.805 7.29167 353.805 6.9375C353.805 6.59375 353.88 6.26823 354.031 5.96094C354.182 5.65365 354.398 5.38281 354.68 5.14844C354.961 4.91406 355.302 4.72917 355.703 4.59375C356.109 4.45833 356.562 4.39062 357.062 4.39062C357.771 4.39062 358.378 4.51042 358.883 4.75C359.393 4.98438 359.784 5.30469 360.055 5.71094C360.326 6.11198 360.461 6.5651 360.461 7.07031H358.578C358.578 6.84635 358.521 6.63802 358.406 6.44531C358.297 6.2474 358.13 6.08854 357.906 5.96875C357.682 5.84375 357.401 5.78125 357.062 5.78125C356.74 5.78125 356.471 5.83333 356.258 5.9375C356.049 6.03646 355.893 6.16667 355.789 6.32812C355.69 6.48958 355.641 6.66667 355.641 6.85938C355.641 7 355.667 7.1276 355.719 7.24219C355.776 7.35156 355.87 7.45312 356 7.54688C356.13 7.63542 356.307 7.71875 356.531 7.79688C356.76 7.875 357.047 7.95052 357.391 8.02344C358.036 8.15885 358.591 8.33333 359.055 8.54688C359.523 8.75521 359.883 9.02604 360.133 9.35938C360.383 9.6875 360.508 10.1042 360.508 10.6094C360.508 10.9844 360.427 11.3281 360.266 11.6406C360.109 11.9479 359.88 12.2161 359.578 12.4453C359.276 12.6693 358.914 12.8438 358.492 12.9688C358.076 13.0938 357.607 13.1562 357.086 13.1562C356.32 13.1562 355.672 13.0208 355.141 12.75C354.609 12.474 354.206 12.1224 353.93 11.6953C353.659 11.263 353.523 10.8151 353.523 10.3516H355.344C355.365 10.7005 355.461 10.9792 355.633 11.1875C355.81 11.3906 356.029 11.5391 356.289 11.6328C356.555 11.7214 356.828 11.7656 357.109 11.7656C357.448 11.7656 357.732 11.7214 357.961 11.6328C358.19 11.5391 358.365 11.4141 358.484 11.2578C358.604 11.0964 358.664 10.9141 358.664 10.7109Z" fill="black"/>
<path d="M366.5 6L370.5 10L374.5 6" stroke="black" stroke-linecap="square"/>
<path d="M413.641 10.0703C413.641 9.83594 413.604 9.6276 413.531 9.44531C413.464 9.26302 413.341 9.09635 413.164 8.94531C412.987 8.79427 412.737 8.64844 412.414 8.50781C412.096 8.36198 411.69 8.21354 411.195 8.0625C410.654 7.89583 410.154 7.71094 409.695 7.50781C409.242 7.29948 408.846 7.0599 408.508 6.78906C408.169 6.51302 407.906 6.19792 407.719 5.84375C407.531 5.48438 407.438 5.07031 407.438 4.60156C407.438 4.13802 407.534 3.71615 407.727 3.33594C407.924 2.95573 408.203 2.6276 408.562 2.35156C408.927 2.07031 409.357 1.85417 409.852 1.70312C410.346 1.54688 410.893 1.46875 411.492 1.46875C412.336 1.46875 413.062 1.625 413.672 1.9375C414.286 2.25 414.758 2.66927 415.086 3.19531C415.419 3.72135 415.586 4.30208 415.586 4.9375H413.641C413.641 4.5625 413.56 4.23177 413.398 3.94531C413.242 3.65365 413.003 3.42448 412.68 3.25781C412.362 3.09115 411.958 3.00781 411.469 3.00781C411.005 3.00781 410.62 3.07812 410.312 3.21875C410.005 3.35938 409.776 3.54948 409.625 3.78906C409.474 4.02865 409.398 4.29948 409.398 4.60156C409.398 4.8151 409.448 5.01042 409.547 5.1875C409.646 5.35938 409.797 5.52083 410 5.67188C410.203 5.81771 410.458 5.95573 410.766 6.08594C411.073 6.21615 411.435 6.34115 411.852 6.46094C412.482 6.64844 413.031 6.85677 413.5 7.08594C413.969 7.3099 414.359 7.5651 414.672 7.85156C414.984 8.13802 415.219 8.46354 415.375 8.82812C415.531 9.1875 415.609 9.59635 415.609 10.0547C415.609 10.5339 415.513 10.9661 415.32 11.3516C415.128 11.7318 414.852 12.0573 414.492 12.3281C414.138 12.5938 413.711 12.7995 413.211 12.9453C412.716 13.0859 412.164 13.1562 411.555 13.1562C411.008 13.1562 410.469 13.0833 409.938 12.9375C409.411 12.7917 408.932 12.5703 408.5 12.2734C408.068 11.9714 407.724 11.5964 407.469 11.1484C407.214 10.6953 407.086 10.1667 407.086 9.5625H409.047C409.047 9.93229 409.109 10.2474 409.234 10.5078C409.365 10.7682 409.544 10.9818 409.773 11.1484C410.003 11.3099 410.268 11.4297 410.57 11.5078C410.878 11.5859 411.206 11.625 411.555 11.625C412.013 11.625 412.396 11.5599 412.703 11.4297C413.016 11.2995 413.25 11.1172 413.406 10.8828C413.562 10.6484 413.641 10.3776 413.641 10.0703ZM419.016 1V13H417.141V1H419.016ZM418.688 8.46094L418.078 8.45312C418.083 7.86979 418.164 7.33073 418.32 6.83594C418.482 6.34115 418.706 5.91146 418.992 5.54688C419.284 5.17708 419.633 4.89323 420.039 4.69531C420.445 4.49219 420.896 4.39062 421.391 4.39062C421.807 4.39062 422.182 4.44792 422.516 4.5625C422.854 4.67708 423.146 4.86198 423.391 5.11719C423.635 5.36719 423.82 5.69531 423.945 6.10156C424.076 6.5026 424.141 6.99219 424.141 7.57031V13H422.25V7.55469C422.25 7.14844 422.19 6.82552 422.07 6.58594C421.956 6.34635 421.786 6.17448 421.562 6.07031C421.339 5.96094 421.065 5.90625 420.742 5.90625C420.404 5.90625 420.104 5.97396 419.844 6.10938C419.589 6.24479 419.375 6.42969 419.203 6.66406C419.031 6.89844 418.901 7.16927 418.812 7.47656C418.729 7.78385 418.688 8.11198 418.688 8.46094ZM425.688 8.86719V8.6875C425.688 8.07812 425.776 7.51302 425.953 6.99219C426.13 6.46615 426.385 6.01042 426.719 5.625C427.057 5.23438 427.469 4.93229 427.953 4.71875C428.443 4.5 428.995 4.39062 429.609 4.39062C430.229 4.39062 430.781 4.5 431.266 4.71875C431.755 4.93229 432.169 5.23438 432.508 5.625C432.846 6.01042 433.104 6.46615 433.281 6.99219C433.458 7.51302 433.547 8.07812 433.547 8.6875V8.86719C433.547 9.47656 433.458 10.0417 433.281 10.5625C433.104 11.0833 432.846 11.5391 432.508 11.9297C432.169 12.3151 431.758 12.6172 431.273 12.8359C430.789 13.0495 430.24 13.1562 429.625 13.1562C429.005 13.1562 428.451 13.0495 427.961 12.8359C427.477 12.6172 427.065 12.3151 426.727 11.9297C426.388 11.5391 426.13 11.0833 425.953 10.5625C425.776 10.0417 425.688 9.47656 425.688 8.86719ZM427.57 8.6875V8.86719C427.57 9.2474 427.609 9.60677 427.688 9.94531C427.766 10.2839 427.888 10.5807 428.055 10.8359C428.221 11.0911 428.435 11.2917 428.695 11.4375C428.956 11.5833 429.266 11.6562 429.625 11.6562C429.974 11.6562 430.276 11.5833 430.531 11.4375C430.792 11.2917 431.005 11.0911 431.172 10.8359C431.339 10.5807 431.461 10.2839 431.539 9.94531C431.622 9.60677 431.664 9.2474 431.664 8.86719V8.6875C431.664 8.3125 431.622 7.95833 431.539 7.625C431.461 7.28646 431.336 6.98698 431.164 6.72656C430.997 6.46615 430.784 6.26302 430.523 6.11719C430.268 5.96615 429.964 5.89062 429.609 5.89062C429.255 5.89062 428.948 5.96615 428.688 6.11719C428.432 6.26302 428.221 6.46615 428.055 6.72656C427.888 6.98698 427.766 7.28646 427.688 7.625C427.609 7.95833 427.57 8.3125 427.57 8.6875ZM437.016 6.17188V16.25H435.133V4.54688H436.867L437.016 6.17188ZM442.523 8.69531V8.85938C442.523 9.47396 442.451 10.0443 442.305 10.5703C442.164 11.0911 441.953 11.5469 441.672 11.9375C441.396 12.3229 441.055 12.6224 440.648 12.8359C440.242 13.0495 439.773 13.1562 439.242 13.1562C438.716 13.1562 438.255 13.0599 437.859 12.8672C437.469 12.6693 437.138 12.3906 436.867 12.0312C436.596 11.6719 436.378 11.25 436.211 10.7656C436.049 10.276 435.935 9.73958 435.867 9.15625V8.52344C435.935 7.90365 436.049 7.34115 436.211 6.83594C436.378 6.33073 436.596 5.89583 436.867 5.53125C437.138 5.16667 437.469 4.88542 437.859 4.6875C438.25 4.48958 438.706 4.39062 439.227 4.39062C439.758 4.39062 440.229 4.49479 440.641 4.70312C441.052 4.90625 441.398 5.19792 441.68 5.57812C441.961 5.95312 442.172 6.40625 442.312 6.9375C442.453 7.46354 442.523 8.04948 442.523 8.69531ZM440.641 8.85938V8.69531C440.641 8.30469 440.604 7.94271 440.531 7.60938C440.458 7.27083 440.344 6.97396 440.188 6.71875C440.031 6.46354 439.831 6.26562 439.586 6.125C439.346 5.97917 439.057 5.90625 438.719 5.90625C438.385 5.90625 438.099 5.96354 437.859 6.07812C437.62 6.1875 437.419 6.34115 437.258 6.53906C437.096 6.73698 436.971 6.96875 436.883 7.23438C436.794 7.49479 436.732 7.77865 436.695 8.08594V9.60156C436.758 9.97656 436.865 10.3203 437.016 10.6328C437.167 10.9453 437.38 11.1953 437.656 11.3828C437.938 11.5651 438.297 11.6562 438.734 11.6562C439.073 11.6562 439.362 11.5833 439.602 11.4375C439.841 11.2917 440.036 11.0911 440.188 10.8359C440.344 10.5755 440.458 10.276 440.531 9.9375C440.604 9.59896 440.641 9.23958 440.641 8.85938Z" fill="black"/>
<path d="M448.5 6L452.5 10L456.5 6" stroke="black" stroke-linecap="square"/>
<path d="M494.922 7.85938H492.023L492.008 6.42969H494.539C494.966 6.42969 495.328 6.36719 495.625 6.24219C495.927 6.11198 496.156 5.92708 496.312 5.6875C496.469 5.44271 496.547 5.14844 496.547 4.80469C496.547 4.42448 496.474 4.11458 496.328 3.875C496.182 3.63542 495.958 3.46094 495.656 3.35156C495.359 3.24219 494.979 3.1875 494.516 3.1875H492.617V13H490.656V1.625H494.516C495.141 1.625 495.698 1.6849 496.188 1.80469C496.682 1.92448 497.102 2.11198 497.445 2.36719C497.794 2.61719 498.057 2.9349 498.234 3.32031C498.417 3.70573 498.508 4.16406 498.508 4.69531C498.508 5.16406 498.396 5.59375 498.172 5.98438C497.948 6.36979 497.617 6.6849 497.18 6.92969C496.742 7.17448 496.198 7.32031 495.547 7.36719L494.922 7.85938ZM494.836 13H491.406L492.289 11.4453H494.836C495.279 11.4453 495.648 11.3724 495.945 11.2266C496.242 11.0755 496.464 10.8698 496.609 10.6094C496.76 10.3438 496.836 10.0339 496.836 9.67969C496.836 9.3099 496.771 8.98958 496.641 8.71875C496.51 8.44271 496.305 8.23177 496.023 8.08594C495.742 7.9349 495.375 7.85938 494.922 7.85938H492.719L492.734 6.42969H495.602L496.047 6.96875C496.672 6.98958 497.185 7.1276 497.586 7.38281C497.992 7.63802 498.294 7.96875 498.492 8.375C498.69 8.78125 498.789 9.21875 498.789 9.6875C498.789 10.4115 498.63 11.0182 498.312 11.5078C498 11.9974 497.549 12.3698 496.961 12.625C496.372 12.875 495.664 13 494.836 13ZM505.664 11.0078V4.54688H507.555V13H505.773L505.664 11.0078ZM505.93 9.25L506.562 9.23438C506.562 9.80208 506.5 10.3255 506.375 10.8047C506.25 11.2786 506.057 11.6927 505.797 12.0469C505.536 12.3958 505.203 12.6693 504.797 12.8672C504.391 13.0599 503.904 13.1562 503.336 13.1562C502.924 13.1562 502.547 13.0964 502.203 12.9766C501.859 12.8568 501.562 12.6719 501.312 12.4219C501.068 12.1719 500.878 11.8464 500.742 11.4453C500.607 11.0443 500.539 10.5651 500.539 10.0078V4.54688H502.422V10.0234C502.422 10.3307 502.458 10.5885 502.531 10.7969C502.604 11 502.703 11.1641 502.828 11.2891C502.953 11.4141 503.099 11.5026 503.266 11.5547C503.432 11.6068 503.609 11.6328 503.797 11.6328C504.333 11.6328 504.755 11.5286 505.062 11.3203C505.375 11.1068 505.596 10.8203 505.727 10.4609C505.862 10.1016 505.93 9.69792 505.93 9.25ZM511.938 12.0781L514.234 4.54688H516.25L512.859 14.2891C512.781 14.4974 512.68 14.724 512.555 14.9688C512.43 15.2135 512.266 15.4453 512.062 15.6641C511.865 15.888 511.617 16.0677 511.32 16.2031C511.023 16.3438 510.664 16.4141 510.242 16.4141C510.076 16.4141 509.914 16.3984 509.758 16.3672C509.607 16.3411 509.464 16.3125 509.328 16.2812L509.32 14.8438C509.372 14.849 509.435 14.8542 509.508 14.8594C509.586 14.8646 509.648 14.8672 509.695 14.8672C510.008 14.8672 510.268 14.8281 510.477 14.75C510.685 14.6771 510.854 14.5573 510.984 14.3906C511.12 14.224 511.234 14 511.328 13.7188L511.938 12.0781ZM510.641 4.54688L512.648 10.875L512.984 12.8594L511.68 13.1953L508.609 4.54688H510.641ZM530.523 1.625V13H528.562L523.461 4.85156V13H521.5V1.625H523.461L528.578 9.78906V1.625H530.523ZM532.312 8.86719V8.6875C532.312 8.07812 532.401 7.51302 532.578 6.99219C532.755 6.46615 533.01 6.01042 533.344 5.625C533.682 5.23438 534.094 4.93229 534.578 4.71875C535.068 4.5 535.62 4.39062 536.234 4.39062C536.854 4.39062 537.406 4.5 537.891 4.71875C538.38 4.93229 538.794 5.23438 539.133 5.625C539.471 6.01042 539.729 6.46615 539.906 6.99219C540.083 7.51302 540.172 8.07812 540.172 8.6875V8.86719C540.172 9.47656 540.083 10.0417 539.906 10.5625C539.729 11.0833 539.471 11.5391 539.133 11.9297C538.794 12.3151 538.383 12.6172 537.898 12.8359C537.414 13.0495 536.865 13.1562 536.25 13.1562C535.63 13.1562 535.076 13.0495 534.586 12.8359C534.102 12.6172 533.69 12.3151 533.352 11.9297C533.013 11.5391 532.755 11.0833 532.578 10.5625C532.401 10.0417 532.312 9.47656 532.312 8.86719ZM534.195 8.6875V8.86719C534.195 9.2474 534.234 9.60677 534.312 9.94531C534.391 10.2839 534.513 10.5807 534.68 10.8359C534.846 11.0911 535.06 11.2917 535.32 11.4375C535.581 11.5833 535.891 11.6562 536.25 11.6562C536.599 11.6562 536.901 11.5833 537.156 11.4375C537.417 11.2917 537.63 11.0911 537.797 10.8359C537.964 10.5807 538.086 10.2839 538.164 9.94531C538.247 9.60677 538.289 9.2474 538.289 8.86719V8.6875C538.289 8.3125 538.247 7.95833 538.164 7.625C538.086 7.28646 537.961 6.98698 537.789 6.72656C537.622 6.46615 537.409 6.26302 537.148 6.11719C536.893 5.96615 536.589 5.89062 536.234 5.89062C535.88 5.89062 535.573 5.96615 535.312 6.11719C535.057 6.26302 534.846 6.46615 534.68 6.72656C534.513 6.98698 534.391 7.28646 534.312 7.625C534.234 7.95833 534.195 8.3125 534.195 8.6875ZM544.047 11.125L546 4.54688H547.203L546.875 6.51562L544.906 13H543.828L544.047 11.125ZM542.898 4.54688L544.422 11.1562L544.547 13H543.344L541.055 4.54688H542.898ZM549.031 11.0781L550.508 4.54688H552.344L550.062 13H548.859L549.031 11.0781ZM547.406 4.54688L549.336 11.0469L549.578 13H548.5L546.508 6.50781L546.18 4.54688H547.406Z" fill="black"/>
</svg>
