<svg width="1920" height="141" viewBox="0 0 1920 141" fill="none" xmlns="http://www.w3.org/2000/svg">
<rect width="1920" height="140" fill="white"/>
<path d="M1535.38 46.7957L1535.76 46.4642C1535.59 46.269 1535.29 46.2395 1535.08 46.3963L1535.38 46.7957ZM1536.8 45.3841L1536.4 45.0834C1536.24 45.2917 1536.27 45.5855 1536.46 45.7584L1536.8 45.3841ZM1536.84 45.4262L1536.49 45.7798L1536.84 45.4262ZM1540.71 49.2929L1541.06 48.9393V48.9393L1540.71 49.2929ZM1540.71 50.7071L1541.06 51.0607L1541.06 51.0607L1540.71 50.7071ZM1539.29 50.7071L1538.94 51.0607H1538.94L1539.29 50.7071ZM1535.43 46.8404L1535.78 46.4869L1535.43 46.8404ZM1531.11 46.7222C1534.21 46.7222 1536.72 44.21 1536.72 41.1111H1535.72C1535.72 43.6578 1533.66 45.7222 1531.11 45.7222V46.7222ZM1525.5 41.1111C1525.5 44.21 1528.01 46.7222 1531.11 46.7222V45.7222C1528.56 45.7222 1526.5 43.6578 1526.5 41.1111H1525.5ZM1531.11 35.5C1528.01 35.5 1525.5 38.0122 1525.5 41.1111H1526.5C1526.5 38.5645 1528.56 36.5 1531.11 36.5V35.5ZM1536.72 41.1111C1536.72 38.0122 1534.21 35.5 1531.11 35.5V36.5C1533.66 36.5 1535.72 38.5645 1535.72 41.1111H1536.72ZM1531.11 48.7222C1532.83 48.7222 1534.41 48.1538 1535.68 47.1952L1535.08 46.3963C1533.98 47.2289 1532.6 47.7222 1531.11 47.7222V48.7222ZM1523.5 41.1111C1523.5 45.3146 1526.91 48.7222 1531.11 48.7222V47.7222C1527.46 47.7222 1524.5 44.7623 1524.5 41.1111H1523.5ZM1531.11 33.5C1526.91 33.5 1523.5 36.9076 1523.5 41.1111H1524.5C1524.5 37.4599 1527.46 34.5 1531.11 34.5V33.5ZM1538.72 41.1111C1538.72 36.9076 1535.31 33.5 1531.11 33.5V34.5C1534.76 34.5 1537.72 37.4599 1537.72 41.1111H1538.72ZM1537.2 45.6849C1538.15 44.4116 1538.72 42.827 1538.72 41.1111H1537.72C1537.72 42.6026 1537.23 43.9775 1536.4 45.0834L1537.2 45.6849ZM1536.46 45.7584C1536.47 45.7653 1536.48 45.7724 1536.49 45.7798L1537.19 45.0727C1537.17 45.0509 1537.15 45.03 1537.13 45.0099L1536.46 45.7584ZM1536.49 45.7798L1540.35 49.6464L1541.06 48.9393L1537.19 45.0727L1536.49 45.7798ZM1540.35 49.6464C1540.55 49.8417 1540.55 50.1583 1540.35 50.3536L1541.06 51.0607C1541.65 50.4749 1541.65 49.5251 1541.06 48.9393L1540.35 49.6464ZM1540.35 50.3536C1540.16 50.5488 1539.84 50.5488 1539.65 50.3536L1538.94 51.0607C1539.53 51.6464 1540.47 51.6464 1541.06 51.0607L1540.35 50.3536ZM1539.65 50.3536L1535.78 46.4869L1535.07 47.194L1538.94 51.0607L1539.65 50.3536ZM1535.78 46.4869C1535.77 46.4795 1535.77 46.4719 1535.76 46.4642L1535.01 47.1273C1535.03 47.15 1535.05 47.1722 1535.07 47.194L1535.78 46.4869Z" fill="black"/>
<path d="M687.461 117H685.031L685.047 115.445H687.461C688.164 115.445 688.753 115.292 689.227 114.984C689.706 114.677 690.065 114.237 690.305 113.664C690.549 113.091 690.672 112.409 690.672 111.617V111C690.672 110.385 690.602 109.841 690.461 109.367C690.326 108.893 690.122 108.495 689.852 108.172C689.586 107.849 689.258 107.604 688.867 107.438C688.482 107.271 688.036 107.188 687.531 107.188H684.984V105.625H687.531C688.286 105.625 688.977 105.753 689.602 106.008C690.227 106.258 690.766 106.62 691.219 107.094C691.677 107.568 692.029 108.135 692.273 108.797C692.518 109.458 692.641 110.198 692.641 111.016V111.617C692.641 112.435 692.518 113.174 692.273 113.836C692.029 114.497 691.677 115.065 691.219 115.539C690.76 116.008 690.214 116.37 689.578 116.625C688.948 116.875 688.242 117 687.461 117ZM686.117 105.625V117H684.156V105.625H686.117ZM698.148 117.156C697.523 117.156 696.958 117.055 696.453 116.852C695.953 116.643 695.526 116.354 695.172 115.984C694.823 115.615 694.555 115.18 694.367 114.68C694.18 114.18 694.086 113.641 694.086 113.062V112.75C694.086 112.089 694.182 111.49 694.375 110.953C694.568 110.417 694.836 109.958 695.18 109.578C695.523 109.193 695.93 108.898 696.398 108.695C696.867 108.492 697.375 108.391 697.922 108.391C698.526 108.391 699.055 108.492 699.508 108.695C699.961 108.898 700.336 109.185 700.633 109.555C700.935 109.919 701.159 110.354 701.305 110.859C701.456 111.365 701.531 111.922 701.531 112.531V113.336H695V111.984H699.672V111.836C699.661 111.497 699.594 111.18 699.469 110.883C699.349 110.586 699.164 110.346 698.914 110.164C698.664 109.982 698.331 109.891 697.914 109.891C697.602 109.891 697.323 109.958 697.078 110.094C696.839 110.224 696.638 110.414 696.477 110.664C696.315 110.914 696.19 111.216 696.102 111.57C696.018 111.919 695.977 112.312 695.977 112.75V113.062C695.977 113.432 696.026 113.776 696.125 114.094C696.229 114.406 696.38 114.68 696.578 114.914C696.776 115.148 697.016 115.333 697.297 115.469C697.578 115.599 697.898 115.664 698.258 115.664C698.711 115.664 699.115 115.573 699.469 115.391C699.823 115.208 700.13 114.951 700.391 114.617L701.383 115.578C701.201 115.844 700.964 116.099 700.672 116.344C700.38 116.583 700.023 116.779 699.602 116.93C699.185 117.081 698.701 117.156 698.148 117.156ZM704.883 110.266V117H703V108.547H704.773L704.883 110.266ZM704.578 112.461L703.938 112.453C703.938 111.87 704.01 111.331 704.156 110.836C704.302 110.341 704.516 109.911 704.797 109.547C705.078 109.177 705.427 108.893 705.844 108.695C706.266 108.492 706.753 108.391 707.305 108.391C707.69 108.391 708.042 108.448 708.359 108.562C708.682 108.672 708.961 108.846 709.195 109.086C709.435 109.326 709.617 109.633 709.742 110.008C709.872 110.383 709.938 110.836 709.938 111.367V117H708.055V111.531C708.055 111.12 707.992 110.797 707.867 110.562C707.747 110.328 707.573 110.161 707.344 110.062C707.12 109.958 706.852 109.906 706.539 109.906C706.185 109.906 705.883 109.974 705.633 110.109C705.388 110.245 705.188 110.43 705.031 110.664C704.875 110.898 704.76 111.169 704.688 111.477C704.615 111.784 704.578 112.112 704.578 112.461ZM709.82 111.961L708.938 112.156C708.938 111.646 709.008 111.164 709.148 110.711C709.294 110.253 709.505 109.852 709.781 109.508C710.062 109.159 710.409 108.885 710.82 108.688C711.232 108.49 711.703 108.391 712.234 108.391C712.667 108.391 713.052 108.451 713.391 108.57C713.734 108.685 714.026 108.867 714.266 109.117C714.505 109.367 714.688 109.693 714.812 110.094C714.938 110.49 715 110.969 715 111.531V117H713.109V111.523C713.109 111.096 713.047 110.766 712.922 110.531C712.802 110.297 712.63 110.135 712.406 110.047C712.182 109.953 711.914 109.906 711.602 109.906C711.31 109.906 711.052 109.961 710.828 110.07C710.609 110.174 710.424 110.323 710.273 110.516C710.122 110.703 710.008 110.919 709.93 111.164C709.857 111.409 709.82 111.674 709.82 111.961ZM716.578 112.867V112.688C716.578 112.078 716.667 111.513 716.844 110.992C717.021 110.466 717.276 110.01 717.609 109.625C717.948 109.234 718.359 108.932 718.844 108.719C719.333 108.5 719.885 108.391 720.5 108.391C721.12 108.391 721.672 108.5 722.156 108.719C722.646 108.932 723.06 109.234 723.398 109.625C723.737 110.01 723.995 110.466 724.172 110.992C724.349 111.513 724.438 112.078 724.438 112.688V112.867C724.438 113.477 724.349 114.042 724.172 114.562C723.995 115.083 723.737 115.539 723.398 115.93C723.06 116.315 722.648 116.617 722.164 116.836C721.68 117.049 721.13 117.156 720.516 117.156C719.896 117.156 719.341 117.049 718.852 116.836C718.367 116.617 717.956 116.315 717.617 115.93C717.279 115.539 717.021 115.083 716.844 114.562C716.667 114.042 716.578 113.477 716.578 112.867ZM718.461 112.688V112.867C718.461 113.247 718.5 113.607 718.578 113.945C718.656 114.284 718.779 114.581 718.945 114.836C719.112 115.091 719.326 115.292 719.586 115.438C719.846 115.583 720.156 115.656 720.516 115.656C720.865 115.656 721.167 115.583 721.422 115.438C721.682 115.292 721.896 115.091 722.062 114.836C722.229 114.581 722.352 114.284 722.43 113.945C722.513 113.607 722.555 113.247 722.555 112.867V112.688C722.555 112.312 722.513 111.958 722.43 111.625C722.352 111.286 722.227 110.987 722.055 110.727C721.888 110.466 721.674 110.263 721.414 110.117C721.159 109.966 720.854 109.891 720.5 109.891C720.146 109.891 719.839 109.966 719.578 110.117C719.323 110.263 719.112 110.466 718.945 110.727C718.779 110.987 718.656 111.286 718.578 111.625C718.5 111.958 718.461 112.312 718.461 112.688ZM730.758 114.711C730.758 114.523 730.711 114.354 730.617 114.203C730.523 114.047 730.344 113.906 730.078 113.781C729.818 113.656 729.432 113.542 728.922 113.438C728.474 113.339 728.062 113.221 727.688 113.086C727.318 112.945 727 112.776 726.734 112.578C726.469 112.38 726.263 112.146 726.117 111.875C725.971 111.604 725.898 111.292 725.898 110.938C725.898 110.594 725.974 110.268 726.125 109.961C726.276 109.654 726.492 109.383 726.773 109.148C727.055 108.914 727.396 108.729 727.797 108.594C728.203 108.458 728.656 108.391 729.156 108.391C729.865 108.391 730.471 108.51 730.977 108.75C731.487 108.984 731.878 109.305 732.148 109.711C732.419 110.112 732.555 110.565 732.555 111.07H730.672C730.672 110.846 730.615 110.638 730.5 110.445C730.391 110.247 730.224 110.089 730 109.969C729.776 109.844 729.495 109.781 729.156 109.781C728.833 109.781 728.565 109.833 728.352 109.938C728.143 110.036 727.987 110.167 727.883 110.328C727.784 110.49 727.734 110.667 727.734 110.859C727.734 111 727.76 111.128 727.812 111.242C727.87 111.352 727.964 111.453 728.094 111.547C728.224 111.635 728.401 111.719 728.625 111.797C728.854 111.875 729.141 111.951 729.484 112.023C730.13 112.159 730.685 112.333 731.148 112.547C731.617 112.755 731.977 113.026 732.227 113.359C732.477 113.688 732.602 114.104 732.602 114.609C732.602 114.984 732.521 115.328 732.359 115.641C732.203 115.948 731.974 116.216 731.672 116.445C731.37 116.669 731.008 116.844 730.586 116.969C730.169 117.094 729.701 117.156 729.18 117.156C728.414 117.156 727.766 117.021 727.234 116.75C726.703 116.474 726.299 116.122 726.023 115.695C725.753 115.263 725.617 114.815 725.617 114.352H727.438C727.458 114.701 727.555 114.979 727.727 115.188C727.904 115.391 728.122 115.539 728.383 115.633C728.648 115.721 728.922 115.766 729.203 115.766C729.542 115.766 729.826 115.721 730.055 115.633C730.284 115.539 730.458 115.414 730.578 115.258C730.698 115.096 730.758 114.914 730.758 114.711Z" fill="black"/>
<path d="M739 110L743 114L747 110" stroke="black" stroke-linecap="square"/>
<path d="M784.977 112.758H782.016V111.203H784.977C785.492 111.203 785.909 111.12 786.227 110.953C786.544 110.786 786.776 110.557 786.922 110.266C787.073 109.969 787.148 109.63 787.148 109.25C787.148 108.891 787.073 108.555 786.922 108.242C786.776 107.924 786.544 107.669 786.227 107.477C785.909 107.284 785.492 107.188 784.977 107.188H782.617V117H780.656V105.625H784.977C785.857 105.625 786.604 105.781 787.219 106.094C787.839 106.401 788.31 106.828 788.633 107.375C788.956 107.917 789.117 108.536 789.117 109.234C789.117 109.969 788.956 110.599 788.633 111.125C788.31 111.651 787.839 112.055 787.219 112.336C786.604 112.617 785.857 112.758 784.977 112.758ZM790.219 112.867V112.688C790.219 112.078 790.307 111.513 790.484 110.992C790.661 110.466 790.917 110.01 791.25 109.625C791.589 109.234 792 108.932 792.484 108.719C792.974 108.5 793.526 108.391 794.141 108.391C794.76 108.391 795.312 108.5 795.797 108.719C796.286 108.932 796.701 109.234 797.039 109.625C797.378 110.01 797.635 110.466 797.812 110.992C797.99 111.513 798.078 112.078 798.078 112.688V112.867C798.078 113.477 797.99 114.042 797.812 114.562C797.635 115.083 797.378 115.539 797.039 115.93C796.701 116.315 796.289 116.617 795.805 116.836C795.32 117.049 794.771 117.156 794.156 117.156C793.536 117.156 792.982 117.049 792.492 116.836C792.008 116.617 791.596 116.315 791.258 115.93C790.919 115.539 790.661 115.083 790.484 114.562C790.307 114.042 790.219 113.477 790.219 112.867ZM792.102 112.688V112.867C792.102 113.247 792.141 113.607 792.219 113.945C792.297 114.284 792.419 114.581 792.586 114.836C792.753 115.091 792.966 115.292 793.227 115.438C793.487 115.583 793.797 115.656 794.156 115.656C794.505 115.656 794.807 115.583 795.062 115.438C795.323 115.292 795.536 115.091 795.703 114.836C795.87 114.581 795.992 114.284 796.07 113.945C796.154 113.607 796.195 113.247 796.195 112.867V112.688C796.195 112.312 796.154 111.958 796.07 111.625C795.992 111.286 795.867 110.987 795.695 110.727C795.529 110.466 795.315 110.263 795.055 110.117C794.799 109.966 794.495 109.891 794.141 109.891C793.786 109.891 793.479 109.966 793.219 110.117C792.964 110.263 792.753 110.466 792.586 110.727C792.419 110.987 792.297 111.286 792.219 111.625C792.141 111.958 792.102 112.312 792.102 112.688ZM804.398 114.711C804.398 114.523 804.352 114.354 804.258 114.203C804.164 114.047 803.984 113.906 803.719 113.781C803.458 113.656 803.073 113.542 802.562 113.438C802.115 113.339 801.703 113.221 801.328 113.086C800.958 112.945 800.641 112.776 800.375 112.578C800.109 112.38 799.904 112.146 799.758 111.875C799.612 111.604 799.539 111.292 799.539 110.938C799.539 110.594 799.615 110.268 799.766 109.961C799.917 109.654 800.133 109.383 800.414 109.148C800.695 108.914 801.036 108.729 801.438 108.594C801.844 108.458 802.297 108.391 802.797 108.391C803.505 108.391 804.112 108.51 804.617 108.75C805.128 108.984 805.518 109.305 805.789 109.711C806.06 110.112 806.195 110.565 806.195 111.07H804.312C804.312 110.846 804.255 110.638 804.141 110.445C804.031 110.247 803.865 110.089 803.641 109.969C803.417 109.844 803.135 109.781 802.797 109.781C802.474 109.781 802.206 109.833 801.992 109.938C801.784 110.036 801.628 110.167 801.523 110.328C801.424 110.49 801.375 110.667 801.375 110.859C801.375 111 801.401 111.128 801.453 111.242C801.51 111.352 801.604 111.453 801.734 111.547C801.865 111.635 802.042 111.719 802.266 111.797C802.495 111.875 802.781 111.951 803.125 112.023C803.771 112.159 804.326 112.333 804.789 112.547C805.258 112.755 805.617 113.026 805.867 113.359C806.117 113.688 806.242 114.104 806.242 114.609C806.242 114.984 806.161 115.328 806 115.641C805.844 115.948 805.615 116.216 805.312 116.445C805.01 116.669 804.648 116.844 804.227 116.969C803.81 117.094 803.341 117.156 802.82 117.156C802.055 117.156 801.406 117.021 800.875 116.75C800.344 116.474 799.94 116.122 799.664 115.695C799.393 115.263 799.258 114.815 799.258 114.352H801.078C801.099 114.701 801.195 114.979 801.367 115.188C801.544 115.391 801.763 115.539 802.023 115.633C802.289 115.721 802.562 115.766 802.844 115.766C803.182 115.766 803.466 115.721 803.695 115.633C803.924 115.539 804.099 115.414 804.219 115.258C804.339 115.096 804.398 114.914 804.398 114.711ZM811.766 108.547V109.922H807V108.547H811.766ZM808.375 106.477H810.258V114.664C810.258 114.924 810.294 115.125 810.367 115.266C810.445 115.401 810.552 115.492 810.688 115.539C810.823 115.586 810.982 115.609 811.164 115.609C811.294 115.609 811.419 115.602 811.539 115.586C811.659 115.57 811.755 115.555 811.828 115.539L811.836 116.977C811.68 117.023 811.497 117.065 811.289 117.102C811.086 117.138 810.852 117.156 810.586 117.156C810.154 117.156 809.771 117.081 809.438 116.93C809.104 116.773 808.844 116.521 808.656 116.172C808.469 115.823 808.375 115.359 808.375 114.781V106.477Z" fill="black"/>
<path d="M817.5 110L821.5 114L825.5 110" stroke="black" stroke-linecap="square"/>
<path d="M861.117 105.625V117H859.156V105.625H861.117ZM865.758 110.602V112.156H860.617V110.602H865.758ZM866.406 105.625V107.188H860.617V105.625H866.406ZM871.336 117.156C870.711 117.156 870.146 117.055 869.641 116.852C869.141 116.643 868.714 116.354 868.359 115.984C868.01 115.615 867.742 115.18 867.555 114.68C867.367 114.18 867.273 113.641 867.273 113.062V112.75C867.273 112.089 867.37 111.49 867.562 110.953C867.755 110.417 868.023 109.958 868.367 109.578C868.711 109.193 869.117 108.898 869.586 108.695C870.055 108.492 870.562 108.391 871.109 108.391C871.714 108.391 872.242 108.492 872.695 108.695C873.148 108.898 873.523 109.185 873.82 109.555C874.122 109.919 874.346 110.354 874.492 110.859C874.643 111.365 874.719 111.922 874.719 112.531V113.336H868.188V111.984H872.859V111.836C872.849 111.497 872.781 111.18 872.656 110.883C872.536 110.586 872.352 110.346 872.102 110.164C871.852 109.982 871.518 109.891 871.102 109.891C870.789 109.891 870.51 109.958 870.266 110.094C870.026 110.224 869.826 110.414 869.664 110.664C869.503 110.914 869.378 111.216 869.289 111.57C869.206 111.919 869.164 112.312 869.164 112.75V113.062C869.164 113.432 869.214 113.776 869.312 114.094C869.417 114.406 869.568 114.68 869.766 114.914C869.964 115.148 870.203 115.333 870.484 115.469C870.766 115.599 871.086 115.664 871.445 115.664C871.898 115.664 872.302 115.573 872.656 115.391C873.01 115.208 873.318 114.951 873.578 114.617L874.57 115.578C874.388 115.844 874.151 116.099 873.859 116.344C873.568 116.583 873.211 116.779 872.789 116.93C872.372 117.081 871.888 117.156 871.336 117.156ZM880.953 115.305V111.273C880.953 110.971 880.898 110.711 880.789 110.492C880.68 110.273 880.513 110.104 880.289 109.984C880.07 109.865 879.794 109.805 879.461 109.805C879.154 109.805 878.888 109.857 878.664 109.961C878.44 110.065 878.266 110.206 878.141 110.383C878.016 110.56 877.953 110.76 877.953 110.984H876.078C876.078 110.651 876.159 110.328 876.32 110.016C876.482 109.703 876.716 109.424 877.023 109.18C877.331 108.935 877.698 108.742 878.125 108.602C878.552 108.461 879.031 108.391 879.562 108.391C880.198 108.391 880.76 108.497 881.25 108.711C881.745 108.924 882.133 109.247 882.414 109.68C882.701 110.107 882.844 110.643 882.844 111.289V115.047C882.844 115.432 882.87 115.779 882.922 116.086C882.979 116.388 883.06 116.651 883.164 116.875V117H881.234C881.146 116.797 881.076 116.539 881.023 116.227C880.977 115.909 880.953 115.602 880.953 115.305ZM881.227 111.859L881.242 113.023H879.891C879.542 113.023 879.234 113.057 878.969 113.125C878.703 113.188 878.482 113.281 878.305 113.406C878.128 113.531 877.995 113.682 877.906 113.859C877.818 114.036 877.773 114.237 877.773 114.461C877.773 114.685 877.826 114.891 877.93 115.078C878.034 115.26 878.185 115.404 878.383 115.508C878.586 115.612 878.831 115.664 879.117 115.664C879.503 115.664 879.839 115.586 880.125 115.43C880.417 115.268 880.646 115.073 880.812 114.844C880.979 114.609 881.068 114.388 881.078 114.18L881.688 115.016C881.625 115.229 881.518 115.458 881.367 115.703C881.216 115.948 881.018 116.182 880.773 116.406C880.534 116.625 880.245 116.805 879.906 116.945C879.573 117.086 879.188 117.156 878.75 117.156C878.198 117.156 877.706 117.047 877.273 116.828C876.841 116.604 876.503 116.305 876.258 115.93C876.013 115.549 875.891 115.12 875.891 114.641C875.891 114.193 875.974 113.797 876.141 113.453C876.312 113.104 876.562 112.812 876.891 112.578C877.224 112.344 877.63 112.167 878.109 112.047C878.589 111.922 879.135 111.859 879.75 111.859H881.227ZM888.688 108.547V109.922H883.922V108.547H888.688ZM885.297 106.477H887.18V114.664C887.18 114.924 887.216 115.125 887.289 115.266C887.367 115.401 887.474 115.492 887.609 115.539C887.745 115.586 887.904 115.609 888.086 115.609C888.216 115.609 888.341 115.602 888.461 115.586C888.581 115.57 888.677 115.555 888.75 115.539L888.758 116.977C888.602 117.023 888.419 117.065 888.211 117.102C888.008 117.138 887.773 117.156 887.508 117.156C887.076 117.156 886.693 117.081 886.359 116.93C886.026 116.773 885.766 116.521 885.578 116.172C885.391 115.823 885.297 115.359 885.297 114.781V106.477ZM895.227 115.008V108.547H897.117V117H895.336L895.227 115.008ZM895.492 113.25L896.125 113.234C896.125 113.802 896.062 114.326 895.938 114.805C895.812 115.279 895.62 115.693 895.359 116.047C895.099 116.396 894.766 116.669 894.359 116.867C893.953 117.06 893.466 117.156 892.898 117.156C892.487 117.156 892.109 117.096 891.766 116.977C891.422 116.857 891.125 116.672 890.875 116.422C890.63 116.172 890.44 115.846 890.305 115.445C890.169 115.044 890.102 114.565 890.102 114.008V108.547H891.984V114.023C891.984 114.331 892.021 114.589 892.094 114.797C892.167 115 892.266 115.164 892.391 115.289C892.516 115.414 892.661 115.503 892.828 115.555C892.995 115.607 893.172 115.633 893.359 115.633C893.896 115.633 894.318 115.529 894.625 115.32C894.938 115.107 895.159 114.82 895.289 114.461C895.424 114.102 895.492 113.698 895.492 113.25ZM900.938 110.156V117H899.055V108.547H900.852L900.938 110.156ZM903.523 108.492L903.508 110.242C903.393 110.221 903.268 110.206 903.133 110.195C903.003 110.185 902.872 110.18 902.742 110.18C902.419 110.18 902.135 110.227 901.891 110.32C901.646 110.409 901.44 110.539 901.273 110.711C901.112 110.878 900.987 111.081 900.898 111.32C900.81 111.56 900.758 111.828 900.742 112.125L900.312 112.156C900.312 111.625 900.365 111.133 900.469 110.68C900.573 110.227 900.729 109.828 900.938 109.484C901.151 109.141 901.417 108.872 901.734 108.68C902.057 108.487 902.43 108.391 902.852 108.391C902.966 108.391 903.089 108.401 903.219 108.422C903.354 108.443 903.456 108.466 903.523 108.492ZM908.273 117.156C907.648 117.156 907.083 117.055 906.578 116.852C906.078 116.643 905.651 116.354 905.297 115.984C904.948 115.615 904.68 115.18 904.492 114.68C904.305 114.18 904.211 113.641 904.211 113.062V112.75C904.211 112.089 904.307 111.49 904.5 110.953C904.693 110.417 904.961 109.958 905.305 109.578C905.648 109.193 906.055 108.898 906.523 108.695C906.992 108.492 907.5 108.391 908.047 108.391C908.651 108.391 909.18 108.492 909.633 108.695C910.086 108.898 910.461 109.185 910.758 109.555C911.06 109.919 911.284 110.354 911.43 110.859C911.581 111.365 911.656 111.922 911.656 112.531V113.336H905.125V111.984H909.797V111.836C909.786 111.497 909.719 111.18 909.594 110.883C909.474 110.586 909.289 110.346 909.039 110.164C908.789 109.982 908.456 109.891 908.039 109.891C907.727 109.891 907.448 109.958 907.203 110.094C906.964 110.224 906.763 110.414 906.602 110.664C906.44 110.914 906.315 111.216 906.227 111.57C906.143 111.919 906.102 112.312 906.102 112.75V113.062C906.102 113.432 906.151 113.776 906.25 114.094C906.354 114.406 906.505 114.68 906.703 114.914C906.901 115.148 907.141 115.333 907.422 115.469C907.703 115.599 908.023 115.664 908.383 115.664C908.836 115.664 909.24 115.573 909.594 115.391C909.948 115.208 910.255 114.951 910.516 114.617L911.508 115.578C911.326 115.844 911.089 116.099 910.797 116.344C910.505 116.583 910.148 116.779 909.727 116.93C909.31 117.081 908.826 117.156 908.273 117.156ZM917.867 114.711C917.867 114.523 917.82 114.354 917.727 114.203C917.633 114.047 917.453 113.906 917.188 113.781C916.927 113.656 916.542 113.542 916.031 113.438C915.583 113.339 915.172 113.221 914.797 113.086C914.427 112.945 914.109 112.776 913.844 112.578C913.578 112.38 913.372 112.146 913.227 111.875C913.081 111.604 913.008 111.292 913.008 110.938C913.008 110.594 913.083 110.268 913.234 109.961C913.385 109.654 913.602 109.383 913.883 109.148C914.164 108.914 914.505 108.729 914.906 108.594C915.312 108.458 915.766 108.391 916.266 108.391C916.974 108.391 917.581 108.51 918.086 108.75C918.596 108.984 918.987 109.305 919.258 109.711C919.529 110.112 919.664 110.565 919.664 111.07H917.781C917.781 110.846 917.724 110.638 917.609 110.445C917.5 110.247 917.333 110.089 917.109 109.969C916.885 109.844 916.604 109.781 916.266 109.781C915.943 109.781 915.674 109.833 915.461 109.938C915.253 110.036 915.096 110.167 914.992 110.328C914.893 110.49 914.844 110.667 914.844 110.859C914.844 111 914.87 111.128 914.922 111.242C914.979 111.352 915.073 111.453 915.203 111.547C915.333 111.635 915.51 111.719 915.734 111.797C915.964 111.875 916.25 111.951 916.594 112.023C917.24 112.159 917.794 112.333 918.258 112.547C918.727 112.755 919.086 113.026 919.336 113.359C919.586 113.688 919.711 114.104 919.711 114.609C919.711 114.984 919.63 115.328 919.469 115.641C919.312 115.948 919.083 116.216 918.781 116.445C918.479 116.669 918.117 116.844 917.695 116.969C917.279 117.094 916.81 117.156 916.289 117.156C915.523 117.156 914.875 117.021 914.344 116.75C913.812 116.474 913.409 116.122 913.133 115.695C912.862 115.263 912.727 114.815 912.727 114.352H914.547C914.568 114.701 914.664 114.979 914.836 115.188C915.013 115.391 915.232 115.539 915.492 115.633C915.758 115.721 916.031 115.766 916.312 115.766C916.651 115.766 916.935 115.721 917.164 115.633C917.393 115.539 917.568 115.414 917.688 115.258C917.807 115.096 917.867 114.914 917.867 114.711Z" fill="black"/>
<path d="M926 110L930 114L934 110" stroke="black" stroke-linecap="square"/>
<path d="M974.375 113.297H976.328C976.266 114.042 976.057 114.706 975.703 115.289C975.349 115.867 974.852 116.323 974.211 116.656C973.57 116.99 972.792 117.156 971.875 117.156C971.172 117.156 970.539 117.031 969.977 116.781C969.414 116.526 968.932 116.167 968.531 115.703C968.13 115.234 967.823 114.669 967.609 114.008C967.401 113.346 967.297 112.607 967.297 111.789V110.844C967.297 110.026 967.404 109.286 967.617 108.625C967.836 107.964 968.148 107.398 968.555 106.93C968.961 106.456 969.448 106.094 970.016 105.844C970.589 105.594 971.232 105.469 971.945 105.469C972.852 105.469 973.617 105.635 974.242 105.969C974.867 106.302 975.352 106.763 975.695 107.352C976.044 107.94 976.258 108.615 976.336 109.375H974.383C974.331 108.885 974.216 108.466 974.039 108.117C973.867 107.768 973.612 107.503 973.273 107.32C972.935 107.133 972.492 107.039 971.945 107.039C971.497 107.039 971.107 107.122 970.773 107.289C970.44 107.456 970.161 107.701 969.938 108.023C969.714 108.346 969.544 108.745 969.43 109.219C969.32 109.688 969.266 110.224 969.266 110.828V111.789C969.266 112.362 969.315 112.883 969.414 113.352C969.518 113.815 969.674 114.214 969.883 114.547C970.096 114.88 970.367 115.138 970.695 115.32C971.023 115.503 971.417 115.594 971.875 115.594C972.432 115.594 972.883 115.505 973.227 115.328C973.576 115.151 973.839 114.893 974.016 114.555C974.198 114.211 974.318 113.792 974.375 113.297ZM982.688 115.305V111.273C982.688 110.971 982.633 110.711 982.523 110.492C982.414 110.273 982.247 110.104 982.023 109.984C981.805 109.865 981.529 109.805 981.195 109.805C980.888 109.805 980.622 109.857 980.398 109.961C980.174 110.065 980 110.206 979.875 110.383C979.75 110.56 979.688 110.76 979.688 110.984H977.812C977.812 110.651 977.893 110.328 978.055 110.016C978.216 109.703 978.451 109.424 978.758 109.18C979.065 108.935 979.432 108.742 979.859 108.602C980.286 108.461 980.766 108.391 981.297 108.391C981.932 108.391 982.495 108.497 982.984 108.711C983.479 108.924 983.867 109.247 984.148 109.68C984.435 110.107 984.578 110.643 984.578 111.289V115.047C984.578 115.432 984.604 115.779 984.656 116.086C984.714 116.388 984.794 116.651 984.898 116.875V117H982.969C982.88 116.797 982.81 116.539 982.758 116.227C982.711 115.909 982.688 115.602 982.688 115.305ZM982.961 111.859L982.977 113.023H981.625C981.276 113.023 980.969 113.057 980.703 113.125C980.438 113.188 980.216 113.281 980.039 113.406C979.862 113.531 979.729 113.682 979.641 113.859C979.552 114.036 979.508 114.237 979.508 114.461C979.508 114.685 979.56 114.891 979.664 115.078C979.768 115.26 979.919 115.404 980.117 115.508C980.32 115.612 980.565 115.664 980.852 115.664C981.237 115.664 981.573 115.586 981.859 115.43C982.151 115.268 982.38 115.073 982.547 114.844C982.714 114.609 982.802 114.388 982.812 114.18L983.422 115.016C983.359 115.229 983.253 115.458 983.102 115.703C982.951 115.948 982.753 116.182 982.508 116.406C982.268 116.625 981.979 116.805 981.641 116.945C981.307 117.086 980.922 117.156 980.484 117.156C979.932 117.156 979.44 117.047 979.008 116.828C978.576 116.604 978.237 116.305 977.992 115.93C977.747 115.549 977.625 115.12 977.625 114.641C977.625 114.193 977.708 113.797 977.875 113.453C978.047 113.104 978.297 112.812 978.625 112.578C978.958 112.344 979.365 112.167 979.844 112.047C980.323 111.922 980.87 111.859 981.484 111.859H982.961ZM990.422 108.547V109.922H985.656V108.547H990.422ZM987.031 106.477H988.914V114.664C988.914 114.924 988.951 115.125 989.023 115.266C989.102 115.401 989.208 115.492 989.344 115.539C989.479 115.586 989.638 115.609 989.82 115.609C989.951 115.609 990.076 115.602 990.195 115.586C990.315 115.57 990.411 115.555 990.484 115.539L990.492 116.977C990.336 117.023 990.154 117.065 989.945 117.102C989.742 117.138 989.508 117.156 989.242 117.156C988.81 117.156 988.427 117.081 988.094 116.93C987.76 116.773 987.5 116.521 987.312 116.172C987.125 115.823 987.031 115.359 987.031 114.781V106.477ZM995.602 117.156C994.977 117.156 994.411 117.055 993.906 116.852C993.406 116.643 992.979 116.354 992.625 115.984C992.276 115.615 992.008 115.18 991.82 114.68C991.633 114.18 991.539 113.641 991.539 113.062V112.75C991.539 112.089 991.635 111.49 991.828 110.953C992.021 110.417 992.289 109.958 992.633 109.578C992.977 109.193 993.383 108.898 993.852 108.695C994.32 108.492 994.828 108.391 995.375 108.391C995.979 108.391 996.508 108.492 996.961 108.695C997.414 108.898 997.789 109.185 998.086 109.555C998.388 109.919 998.612 110.354 998.758 110.859C998.909 111.365 998.984 111.922 998.984 112.531V113.336H992.453V111.984H997.125V111.836C997.115 111.497 997.047 111.18 996.922 110.883C996.802 110.586 996.617 110.346 996.367 110.164C996.117 109.982 995.784 109.891 995.367 109.891C995.055 109.891 994.776 109.958 994.531 110.094C994.292 110.224 994.091 110.414 993.93 110.664C993.768 110.914 993.643 111.216 993.555 111.57C993.471 111.919 993.43 112.312 993.43 112.75V113.062C993.43 113.432 993.479 113.776 993.578 114.094C993.682 114.406 993.833 114.68 994.031 114.914C994.229 115.148 994.469 115.333 994.75 115.469C995.031 115.599 995.352 115.664 995.711 115.664C996.164 115.664 996.568 115.573 996.922 115.391C997.276 115.208 997.583 114.951 997.844 114.617L998.836 115.578C998.654 115.844 998.417 116.099 998.125 116.344C997.833 116.583 997.477 116.779 997.055 116.93C996.638 117.081 996.154 117.156 995.602 117.156ZM1005.87 108.547H1007.58V116.766C1007.58 117.526 1007.42 118.172 1007.09 118.703C1006.77 119.234 1006.32 119.638 1005.74 119.914C1005.16 120.195 1004.49 120.336 1003.73 120.336C1003.41 120.336 1003.05 120.289 1002.66 120.195C1002.27 120.102 1001.89 119.951 1001.52 119.742C1001.15 119.539 1000.85 119.271 1000.6 118.938L1001.48 117.828C1001.79 118.188 1002.12 118.451 1002.48 118.617C1002.85 118.784 1003.23 118.867 1003.63 118.867C1004.07 118.867 1004.43 118.786 1004.73 118.625C1005.04 118.469 1005.28 118.237 1005.45 117.93C1005.61 117.622 1005.7 117.247 1005.7 116.805V110.461L1005.87 108.547ZM1000.12 112.867V112.703C1000.12 112.062 1000.2 111.479 1000.36 110.953C1000.52 110.422 1000.74 109.966 1001.03 109.586C1001.32 109.201 1001.68 108.906 1002.09 108.703C1002.51 108.495 1002.98 108.391 1003.51 108.391C1004.05 108.391 1004.52 108.49 1004.91 108.688C1005.3 108.885 1005.62 109.169 1005.88 109.539C1006.14 109.904 1006.35 110.341 1006.49 110.852C1006.64 111.357 1006.76 111.919 1006.83 112.539V113.062C1006.76 113.667 1006.65 114.219 1006.48 114.719C1006.32 115.219 1006.11 115.651 1005.84 116.016C1005.58 116.38 1005.25 116.661 1004.86 116.859C1004.47 117.057 1004.02 117.156 1003.49 117.156C1002.98 117.156 1002.51 117.049 1002.09 116.836C1001.68 116.622 1001.33 116.323 1001.03 115.938C1000.74 115.552 1000.52 115.099 1000.36 114.578C1000.2 114.052 1000.12 113.482 1000.12 112.867ZM1002.01 112.703V112.867C1002.01 113.253 1002.04 113.612 1002.12 113.945C1002.2 114.279 1002.31 114.573 1002.47 114.828C1002.63 115.078 1002.83 115.276 1003.08 115.422C1003.33 115.562 1003.62 115.633 1003.96 115.633C1004.4 115.633 1004.77 115.539 1005.05 115.352C1005.33 115.164 1005.55 114.911 1005.7 114.594C1005.86 114.271 1005.97 113.911 1006.03 113.516V112.102C1006 111.794 1005.93 111.508 1005.84 111.242C1005.74 110.977 1005.61 110.745 1005.45 110.547C1005.29 110.344 1005.09 110.188 1004.84 110.078C1004.6 109.964 1004.31 109.906 1003.98 109.906C1003.64 109.906 1003.34 109.979 1003.09 110.125C1002.84 110.271 1002.64 110.471 1002.48 110.727C1002.32 110.982 1002.2 111.279 1002.12 111.617C1002.05 111.956 1002.01 112.318 1002.01 112.703ZM1009.17 112.867V112.688C1009.17 112.078 1009.26 111.513 1009.44 110.992C1009.61 110.466 1009.87 110.01 1010.2 109.625C1010.54 109.234 1010.95 108.932 1011.44 108.719C1011.93 108.5 1012.48 108.391 1013.09 108.391C1013.71 108.391 1014.27 108.5 1014.75 108.719C1015.24 108.932 1015.65 109.234 1015.99 109.625C1016.33 110.01 1016.59 110.466 1016.77 110.992C1016.94 111.513 1017.03 112.078 1017.03 112.688V112.867C1017.03 113.477 1016.94 114.042 1016.77 114.562C1016.59 115.083 1016.33 115.539 1015.99 115.93C1015.65 116.315 1015.24 116.617 1014.76 116.836C1014.27 117.049 1013.72 117.156 1013.11 117.156C1012.49 117.156 1011.93 117.049 1011.45 116.836C1010.96 116.617 1010.55 116.315 1010.21 115.93C1009.87 115.539 1009.61 115.083 1009.44 114.562C1009.26 114.042 1009.17 113.477 1009.17 112.867ZM1011.05 112.688V112.867C1011.05 113.247 1011.09 113.607 1011.17 113.945C1011.25 114.284 1011.37 114.581 1011.54 114.836C1011.71 115.091 1011.92 115.292 1012.18 115.438C1012.44 115.583 1012.75 115.656 1013.11 115.656C1013.46 115.656 1013.76 115.583 1014.02 115.438C1014.28 115.292 1014.49 115.091 1014.66 114.836C1014.82 114.581 1014.95 114.284 1015.02 113.945C1015.11 113.607 1015.15 113.247 1015.15 112.867V112.688C1015.15 112.312 1015.11 111.958 1015.02 111.625C1014.95 111.286 1014.82 110.987 1014.65 110.727C1014.48 110.466 1014.27 110.263 1014.01 110.117C1013.75 109.966 1013.45 109.891 1013.09 109.891C1012.74 109.891 1012.43 109.966 1012.17 110.117C1011.92 110.263 1011.71 110.466 1011.54 110.727C1011.37 110.987 1011.25 111.286 1011.17 111.625C1011.09 111.958 1011.05 112.312 1011.05 112.688ZM1020.5 110.156V117H1018.62V108.547H1020.41L1020.5 110.156ZM1023.09 108.492L1023.07 110.242C1022.96 110.221 1022.83 110.206 1022.7 110.195C1022.57 110.185 1022.43 110.18 1022.3 110.18C1021.98 110.18 1021.7 110.227 1021.45 110.32C1021.21 110.409 1021 110.539 1020.84 110.711C1020.67 110.878 1020.55 111.081 1020.46 111.32C1020.37 111.56 1020.32 111.828 1020.3 112.125L1019.88 112.156C1019.88 111.625 1019.93 111.133 1020.03 110.68C1020.14 110.227 1020.29 109.828 1020.5 109.484C1020.71 109.141 1020.98 108.872 1021.3 108.68C1021.62 108.487 1021.99 108.391 1022.41 108.391C1022.53 108.391 1022.65 108.401 1022.78 108.422C1022.92 108.443 1023.02 108.466 1023.09 108.492ZM1026.28 108.547V117H1024.39V108.547H1026.28ZM1024.27 106.328C1024.27 106.042 1024.36 105.805 1024.55 105.617C1024.74 105.424 1025.01 105.328 1025.34 105.328C1025.68 105.328 1025.94 105.424 1026.13 105.617C1026.33 105.805 1026.42 106.042 1026.42 106.328C1026.42 106.609 1026.33 106.844 1026.13 107.031C1025.94 107.219 1025.68 107.312 1025.34 107.312C1025.01 107.312 1024.74 107.219 1024.55 107.031C1024.36 106.844 1024.27 106.609 1024.27 106.328ZM1032.07 117.156C1031.45 117.156 1030.88 117.055 1030.38 116.852C1029.88 116.643 1029.45 116.354 1029.09 115.984C1028.74 115.615 1028.48 115.18 1028.29 114.68C1028.1 114.18 1028.01 113.641 1028.01 113.062V112.75C1028.01 112.089 1028.1 111.49 1028.3 110.953C1028.49 110.417 1028.76 109.958 1029.1 109.578C1029.45 109.193 1029.85 108.898 1030.32 108.695C1030.79 108.492 1031.3 108.391 1031.84 108.391C1032.45 108.391 1032.98 108.492 1033.43 108.695C1033.88 108.898 1034.26 109.185 1034.55 109.555C1034.86 109.919 1035.08 110.354 1035.23 110.859C1035.38 111.365 1035.45 111.922 1035.45 112.531V113.336H1028.92V111.984H1033.59V111.836C1033.58 111.497 1033.52 111.18 1033.39 110.883C1033.27 110.586 1033.09 110.346 1032.84 110.164C1032.59 109.982 1032.25 109.891 1031.84 109.891C1031.52 109.891 1031.24 109.958 1031 110.094C1030.76 110.224 1030.56 110.414 1030.4 110.664C1030.24 110.914 1030.11 111.216 1030.02 111.57C1029.94 111.919 1029.9 112.312 1029.9 112.75V113.062C1029.9 113.432 1029.95 113.776 1030.05 114.094C1030.15 114.406 1030.3 114.68 1030.5 114.914C1030.7 115.148 1030.94 115.333 1031.22 115.469C1031.5 115.599 1031.82 115.664 1032.18 115.664C1032.63 115.664 1033.04 115.573 1033.39 115.391C1033.74 115.208 1034.05 114.951 1034.31 114.617L1035.3 115.578C1035.12 115.844 1034.89 116.099 1034.59 116.344C1034.3 116.583 1033.95 116.779 1033.52 116.93C1033.11 117.081 1032.62 117.156 1032.07 117.156ZM1041.66 114.711C1041.66 114.523 1041.62 114.354 1041.52 114.203C1041.43 114.047 1041.25 113.906 1040.98 113.781C1040.72 113.656 1040.34 113.542 1039.83 113.438C1039.38 113.339 1038.97 113.221 1038.59 113.086C1038.22 112.945 1037.91 112.776 1037.64 112.578C1037.38 112.38 1037.17 112.146 1037.02 111.875C1036.88 111.604 1036.8 111.292 1036.8 110.938C1036.8 110.594 1036.88 110.268 1037.03 109.961C1037.18 109.654 1037.4 109.383 1037.68 109.148C1037.96 108.914 1038.3 108.729 1038.7 108.594C1039.11 108.458 1039.56 108.391 1040.06 108.391C1040.77 108.391 1041.38 108.51 1041.88 108.75C1042.39 108.984 1042.78 109.305 1043.05 109.711C1043.33 110.112 1043.46 110.565 1043.46 111.07H1041.58C1041.58 110.846 1041.52 110.638 1041.41 110.445C1041.3 110.247 1041.13 110.089 1040.91 109.969C1040.68 109.844 1040.4 109.781 1040.06 109.781C1039.74 109.781 1039.47 109.833 1039.26 109.938C1039.05 110.036 1038.89 110.167 1038.79 110.328C1038.69 110.49 1038.64 110.667 1038.64 110.859C1038.64 111 1038.67 111.128 1038.72 111.242C1038.78 111.352 1038.87 111.453 1039 111.547C1039.13 111.635 1039.31 111.719 1039.53 111.797C1039.76 111.875 1040.05 111.951 1040.39 112.023C1041.04 112.159 1041.59 112.333 1042.05 112.547C1042.52 112.755 1042.88 113.026 1043.13 113.359C1043.38 113.688 1043.51 114.104 1043.51 114.609C1043.51 114.984 1043.43 115.328 1043.27 115.641C1043.11 115.948 1042.88 116.216 1042.58 116.445C1042.28 116.669 1041.91 116.844 1041.49 116.969C1041.08 117.094 1040.61 117.156 1040.09 117.156C1039.32 117.156 1038.67 117.021 1038.14 116.75C1037.61 116.474 1037.21 116.122 1036.93 115.695C1036.66 115.263 1036.52 114.815 1036.52 114.352H1038.34C1038.36 114.701 1038.46 114.979 1038.63 115.188C1038.81 115.391 1039.03 115.539 1039.29 115.633C1039.55 115.721 1039.83 115.766 1040.11 115.766C1040.45 115.766 1040.73 115.721 1040.96 115.633C1041.19 115.539 1041.36 115.414 1041.48 115.258C1041.6 115.096 1041.66 114.914 1041.66 114.711Z" fill="black"/>
<path d="M1049.5 110L1053.5 114L1057.5 110" stroke="black" stroke-linecap="square"/>
<path d="M1096.64 114.07C1096.64 113.836 1096.6 113.628 1096.53 113.445C1096.46 113.263 1096.34 113.096 1096.16 112.945C1095.99 112.794 1095.74 112.648 1095.41 112.508C1095.1 112.362 1094.69 112.214 1094.2 112.062C1093.65 111.896 1093.15 111.711 1092.7 111.508C1092.24 111.299 1091.85 111.06 1091.51 110.789C1091.17 110.513 1090.91 110.198 1090.72 109.844C1090.53 109.484 1090.44 109.07 1090.44 108.602C1090.44 108.138 1090.53 107.716 1090.73 107.336C1090.92 106.956 1091.2 106.628 1091.56 106.352C1091.93 106.07 1092.36 105.854 1092.85 105.703C1093.35 105.547 1093.89 105.469 1094.49 105.469C1095.34 105.469 1096.06 105.625 1096.67 105.938C1097.29 106.25 1097.76 106.669 1098.09 107.195C1098.42 107.721 1098.59 108.302 1098.59 108.938H1096.64C1096.64 108.562 1096.56 108.232 1096.4 107.945C1096.24 107.654 1096 107.424 1095.68 107.258C1095.36 107.091 1094.96 107.008 1094.47 107.008C1094.01 107.008 1093.62 107.078 1093.31 107.219C1093.01 107.359 1092.78 107.549 1092.62 107.789C1092.47 108.029 1092.4 108.299 1092.4 108.602C1092.4 108.815 1092.45 109.01 1092.55 109.188C1092.65 109.359 1092.8 109.521 1093 109.672C1093.2 109.818 1093.46 109.956 1093.77 110.086C1094.07 110.216 1094.43 110.341 1094.85 110.461C1095.48 110.648 1096.03 110.857 1096.5 111.086C1096.97 111.31 1097.36 111.565 1097.67 111.852C1097.98 112.138 1098.22 112.464 1098.38 112.828C1098.53 113.188 1098.61 113.596 1098.61 114.055C1098.61 114.534 1098.51 114.966 1098.32 115.352C1098.13 115.732 1097.85 116.057 1097.49 116.328C1097.14 116.594 1096.71 116.799 1096.21 116.945C1095.72 117.086 1095.16 117.156 1094.55 117.156C1094.01 117.156 1093.47 117.083 1092.94 116.938C1092.41 116.792 1091.93 116.57 1091.5 116.273C1091.07 115.971 1090.72 115.596 1090.47 115.148C1090.21 114.695 1090.09 114.167 1090.09 113.562H1092.05C1092.05 113.932 1092.11 114.247 1092.23 114.508C1092.36 114.768 1092.54 114.982 1092.77 115.148C1093 115.31 1093.27 115.43 1093.57 115.508C1093.88 115.586 1094.21 115.625 1094.55 115.625C1095.01 115.625 1095.4 115.56 1095.7 115.43C1096.02 115.299 1096.25 115.117 1096.41 114.883C1096.56 114.648 1096.64 114.378 1096.64 114.07ZM1102.02 105V117H1100.14V105H1102.02ZM1101.69 112.461L1101.08 112.453C1101.08 111.87 1101.16 111.331 1101.32 110.836C1101.48 110.341 1101.71 109.911 1101.99 109.547C1102.28 109.177 1102.63 108.893 1103.04 108.695C1103.45 108.492 1103.9 108.391 1104.39 108.391C1104.81 108.391 1105.18 108.448 1105.52 108.562C1105.85 108.677 1106.15 108.862 1106.39 109.117C1106.64 109.367 1106.82 109.695 1106.95 110.102C1107.08 110.503 1107.14 110.992 1107.14 111.57V117H1105.25V111.555C1105.25 111.148 1105.19 110.826 1105.07 110.586C1104.96 110.346 1104.79 110.174 1104.56 110.07C1104.34 109.961 1104.07 109.906 1103.74 109.906C1103.4 109.906 1103.1 109.974 1102.84 110.109C1102.59 110.245 1102.38 110.43 1102.2 110.664C1102.03 110.898 1101.9 111.169 1101.81 111.477C1101.73 111.784 1101.69 112.112 1101.69 112.461ZM1108.69 112.867V112.688C1108.69 112.078 1108.78 111.513 1108.95 110.992C1109.13 110.466 1109.39 110.01 1109.72 109.625C1110.06 109.234 1110.47 108.932 1110.95 108.719C1111.44 108.5 1111.99 108.391 1112.61 108.391C1113.23 108.391 1113.78 108.5 1114.27 108.719C1114.76 108.932 1115.17 109.234 1115.51 109.625C1115.85 110.01 1116.1 110.466 1116.28 110.992C1116.46 111.513 1116.55 112.078 1116.55 112.688V112.867C1116.55 113.477 1116.46 114.042 1116.28 114.562C1116.1 115.083 1115.85 115.539 1115.51 115.93C1115.17 116.315 1114.76 116.617 1114.27 116.836C1113.79 117.049 1113.24 117.156 1112.62 117.156C1112.01 117.156 1111.45 117.049 1110.96 116.836C1110.48 116.617 1110.07 116.315 1109.73 115.93C1109.39 115.539 1109.13 115.083 1108.95 114.562C1108.78 114.042 1108.69 113.477 1108.69 112.867ZM1110.57 112.688V112.867C1110.57 113.247 1110.61 113.607 1110.69 113.945C1110.77 114.284 1110.89 114.581 1111.05 114.836C1111.22 115.091 1111.43 115.292 1111.7 115.438C1111.96 115.583 1112.27 115.656 1112.62 115.656C1112.97 115.656 1113.28 115.583 1113.53 115.438C1113.79 115.292 1114.01 115.091 1114.17 114.836C1114.34 114.581 1114.46 114.284 1114.54 113.945C1114.62 113.607 1114.66 113.247 1114.66 112.867V112.688C1114.66 112.312 1114.62 111.958 1114.54 111.625C1114.46 111.286 1114.34 110.987 1114.16 110.727C1114 110.466 1113.78 110.263 1113.52 110.117C1113.27 109.966 1112.96 109.891 1112.61 109.891C1112.26 109.891 1111.95 109.966 1111.69 110.117C1111.43 110.263 1111.22 110.466 1111.05 110.727C1110.89 110.987 1110.77 111.286 1110.69 111.625C1110.61 111.958 1110.57 112.312 1110.57 112.688ZM1120.02 110.172V120.25H1118.13V108.547H1119.87L1120.02 110.172ZM1125.52 112.695V112.859C1125.52 113.474 1125.45 114.044 1125.3 114.57C1125.16 115.091 1124.95 115.547 1124.67 115.938C1124.4 116.323 1124.05 116.622 1123.65 116.836C1123.24 117.049 1122.77 117.156 1122.24 117.156C1121.72 117.156 1121.26 117.06 1120.86 116.867C1120.47 116.669 1120.14 116.391 1119.87 116.031C1119.6 115.672 1119.38 115.25 1119.21 114.766C1119.05 114.276 1118.93 113.74 1118.87 113.156V112.523C1118.93 111.904 1119.05 111.341 1119.21 110.836C1119.38 110.331 1119.6 109.896 1119.87 109.531C1120.14 109.167 1120.47 108.885 1120.86 108.688C1121.25 108.49 1121.71 108.391 1122.23 108.391C1122.76 108.391 1123.23 108.495 1123.64 108.703C1124.05 108.906 1124.4 109.198 1124.68 109.578C1124.96 109.953 1125.17 110.406 1125.31 110.938C1125.45 111.464 1125.52 112.049 1125.52 112.695ZM1123.64 112.859V112.695C1123.64 112.305 1123.6 111.943 1123.53 111.609C1123.46 111.271 1123.34 110.974 1123.19 110.719C1123.03 110.464 1122.83 110.266 1122.59 110.125C1122.35 109.979 1122.06 109.906 1121.72 109.906C1121.39 109.906 1121.1 109.964 1120.86 110.078C1120.62 110.188 1120.42 110.341 1120.26 110.539C1120.1 110.737 1119.97 110.969 1119.88 111.234C1119.79 111.495 1119.73 111.779 1119.7 112.086V113.602C1119.76 113.977 1119.86 114.32 1120.02 114.633C1120.17 114.945 1120.38 115.195 1120.66 115.383C1120.94 115.565 1121.3 115.656 1121.73 115.656C1122.07 115.656 1122.36 115.583 1122.6 115.438C1122.84 115.292 1123.04 115.091 1123.19 114.836C1123.34 114.576 1123.46 114.276 1123.53 113.938C1123.6 113.599 1123.64 113.24 1123.64 112.859Z" fill="black"/>
<path d="M1131.5 110L1135.5 114L1139.5 110" stroke="black" stroke-linecap="square"/>
<path d="M1177.92 111.859H1175.02L1175.01 110.43H1177.54C1177.97 110.43 1178.33 110.367 1178.62 110.242C1178.93 110.112 1179.16 109.927 1179.31 109.688C1179.47 109.443 1179.55 109.148 1179.55 108.805C1179.55 108.424 1179.47 108.115 1179.33 107.875C1179.18 107.635 1178.96 107.461 1178.66 107.352C1178.36 107.242 1177.98 107.188 1177.52 107.188H1175.62V117H1173.66V105.625H1177.52C1178.14 105.625 1178.7 105.685 1179.19 105.805C1179.68 105.924 1180.1 106.112 1180.45 106.367C1180.79 106.617 1181.06 106.935 1181.23 107.32C1181.42 107.706 1181.51 108.164 1181.51 108.695C1181.51 109.164 1181.4 109.594 1181.17 109.984C1180.95 110.37 1180.62 110.685 1180.18 110.93C1179.74 111.174 1179.2 111.32 1178.55 111.367L1177.92 111.859ZM1177.84 117H1174.41L1175.29 115.445H1177.84C1178.28 115.445 1178.65 115.372 1178.95 115.227C1179.24 115.076 1179.46 114.87 1179.61 114.609C1179.76 114.344 1179.84 114.034 1179.84 113.68C1179.84 113.31 1179.77 112.99 1179.64 112.719C1179.51 112.443 1179.3 112.232 1179.02 112.086C1178.74 111.935 1178.38 111.859 1177.92 111.859H1175.72L1175.73 110.43H1178.6L1179.05 110.969C1179.67 110.99 1180.18 111.128 1180.59 111.383C1180.99 111.638 1181.29 111.969 1181.49 112.375C1181.69 112.781 1181.79 113.219 1181.79 113.688C1181.79 114.411 1181.63 115.018 1181.31 115.508C1181 115.997 1180.55 116.37 1179.96 116.625C1179.37 116.875 1178.66 117 1177.84 117ZM1188.66 115.008V108.547H1190.55V117H1188.77L1188.66 115.008ZM1188.93 113.25L1189.56 113.234C1189.56 113.802 1189.5 114.326 1189.38 114.805C1189.25 115.279 1189.06 115.693 1188.8 116.047C1188.54 116.396 1188.2 116.669 1187.8 116.867C1187.39 117.06 1186.9 117.156 1186.34 117.156C1185.92 117.156 1185.55 117.096 1185.2 116.977C1184.86 116.857 1184.56 116.672 1184.31 116.422C1184.07 116.172 1183.88 115.846 1183.74 115.445C1183.61 115.044 1183.54 114.565 1183.54 114.008V108.547H1185.42V114.023C1185.42 114.331 1185.46 114.589 1185.53 114.797C1185.6 115 1185.7 115.164 1185.83 115.289C1185.95 115.414 1186.1 115.503 1186.27 115.555C1186.43 115.607 1186.61 115.633 1186.8 115.633C1187.33 115.633 1187.76 115.529 1188.06 115.32C1188.38 115.107 1188.6 114.82 1188.73 114.461C1188.86 114.102 1188.93 113.698 1188.93 113.25ZM1194.94 116.078L1197.23 108.547H1199.25L1195.86 118.289C1195.78 118.497 1195.68 118.724 1195.55 118.969C1195.43 119.214 1195.27 119.445 1195.06 119.664C1194.86 119.888 1194.62 120.068 1194.32 120.203C1194.02 120.344 1193.66 120.414 1193.24 120.414C1193.08 120.414 1192.91 120.398 1192.76 120.367C1192.61 120.341 1192.46 120.312 1192.33 120.281L1192.32 118.844C1192.37 118.849 1192.43 118.854 1192.51 118.859C1192.59 118.865 1192.65 118.867 1192.7 118.867C1193.01 118.867 1193.27 118.828 1193.48 118.75C1193.68 118.677 1193.85 118.557 1193.98 118.391C1194.12 118.224 1194.23 118 1194.33 117.719L1194.94 116.078ZM1193.64 108.547L1195.65 114.875L1195.98 116.859L1194.68 117.195L1191.61 108.547H1193.64ZM1213.52 105.625V117H1211.56L1206.46 108.852V117H1204.5V105.625H1206.46L1211.58 113.789V105.625H1213.52ZM1215.31 112.867V112.688C1215.31 112.078 1215.4 111.513 1215.58 110.992C1215.76 110.466 1216.01 110.01 1216.34 109.625C1216.68 109.234 1217.09 108.932 1217.58 108.719C1218.07 108.5 1218.62 108.391 1219.23 108.391C1219.85 108.391 1220.41 108.5 1220.89 108.719C1221.38 108.932 1221.79 109.234 1222.13 109.625C1222.47 110.01 1222.73 110.466 1222.91 110.992C1223.08 111.513 1223.17 112.078 1223.17 112.688V112.867C1223.17 113.477 1223.08 114.042 1222.91 114.562C1222.73 115.083 1222.47 115.539 1222.13 115.93C1221.79 116.315 1221.38 116.617 1220.9 116.836C1220.41 117.049 1219.86 117.156 1219.25 117.156C1218.63 117.156 1218.08 117.049 1217.59 116.836C1217.1 116.617 1216.69 116.315 1216.35 115.93C1216.01 115.539 1215.76 115.083 1215.58 114.562C1215.4 114.042 1215.31 113.477 1215.31 112.867ZM1217.2 112.688V112.867C1217.2 113.247 1217.23 113.607 1217.31 113.945C1217.39 114.284 1217.51 114.581 1217.68 114.836C1217.85 115.091 1218.06 115.292 1218.32 115.438C1218.58 115.583 1218.89 115.656 1219.25 115.656C1219.6 115.656 1219.9 115.583 1220.16 115.438C1220.42 115.292 1220.63 115.091 1220.8 114.836C1220.96 114.581 1221.09 114.284 1221.16 113.945C1221.25 113.607 1221.29 113.247 1221.29 112.867V112.688C1221.29 112.312 1221.25 111.958 1221.16 111.625C1221.09 111.286 1220.96 110.987 1220.79 110.727C1220.62 110.466 1220.41 110.263 1220.15 110.117C1219.89 109.966 1219.59 109.891 1219.23 109.891C1218.88 109.891 1218.57 109.966 1218.31 110.117C1218.06 110.263 1217.85 110.466 1217.68 110.727C1217.51 110.987 1217.39 111.286 1217.31 111.625C1217.23 111.958 1217.2 112.312 1217.2 112.688ZM1227.05 115.125L1229 108.547H1230.2L1229.88 110.516L1227.91 117H1226.83L1227.05 115.125ZM1225.9 108.547L1227.42 115.156L1227.55 117H1226.34L1224.05 108.547H1225.9ZM1232.03 115.078L1233.51 108.547H1235.34L1233.06 117H1231.86L1232.03 115.078ZM1230.41 108.547L1232.34 115.047L1232.58 117H1231.5L1229.51 110.508L1229.18 108.547H1230.41Z" fill="black"/>
<path fill-rule="evenodd" clip-rule="evenodd" d="M900.885 55.5968C907.381 55.5968 912.709 50.3468 912.709 43.9302C912.709 40.5563 911.527 37.7027 909.115 35.2905L906.529 32.6892C904.306 30.4662 901.295 29 897.905 29C891.378 29 886.081 34.2658 886.081 40.7928C886.081 44.2297 887.516 47.1937 889.755 49.4009L891.851 51.482C894.863 54.4617 897.322 55.5968 900.885 55.5968ZM888.241 55.2184H873.311L870 51.9076V29.4414H875.376L878.845 32.7365V46.8153H884.93L888.241 50.1261V55.2184ZM875.55 30.3874V46.8153H878.277V32.9887L875.55 30.3874ZM872.491 49.7004V31.7748H873.059V49.1644H882.786V49.7004H872.491ZM870.962 52.0811L873.532 54.6509H887.673V50.3468L885.104 47.777V52.0811H870.962ZM888.619 40.7928C888.619 46.027 892.734 50.1892 897.905 50.1892C903.077 50.1892 907.191 46.027 907.191 40.7928C907.191 35.5901 903.092 31.4279 897.905 31.4279C892.671 31.4752 888.619 35.5743 888.619 40.7928ZM897.905 49.6531C902.777 49.6531 906.608 45.7432 906.608 40.7928C906.608 35.8581 902.777 31.964 897.905 31.964C893.034 31.964 889.203 35.8581 889.203 40.7928C889.203 45.7432 893.034 49.6531 897.905 49.6531ZM891.725 40.777C891.757 43.1261 892.687 45.0338 894.5 46.232C894.169 45.4594 893.98 44.5923 893.98 43.4572C893.98 39.5631 896.944 36.4887 900.727 36.4887C901.579 36.4887 902.304 36.6779 902.982 37.0248C901.831 35.3694 900.002 34.4234 897.905 34.3919C894.437 34.3919 891.741 37.1667 891.725 40.777ZM900.885 55.0293C897.527 55.0293 895.004 53.9887 892.214 51.1193C893.948 52.0653 895.887 52.6171 897.905 52.6171C904.432 52.6171 909.73 47.3198 909.73 40.7928C909.667 38.6644 909.272 36.9932 908.295 35.2275C910.928 37.7973 912.142 40.4302 912.142 43.9302C912.142 50.0315 907.065 55.0293 900.885 55.0293ZM895.446 46.7365C896.187 47.0518 897.007 47.2252 897.905 47.2252C901.358 47.2252 904.086 44.4031 904.086 40.7928C904.086 39.7522 903.881 38.8063 903.502 37.9707C902.698 37.3401 901.815 37.0563 900.727 37.0563C897.259 37.0563 894.547 39.8468 894.547 43.4572C894.547 44.9549 894.815 45.9009 895.446 46.7365ZM928.822 55.5968C931.818 55.5968 935.554 54.777 937.399 53.7207V42.0067L933.93 38.7117H924.928V43.3626L928.065 46.3581L928.649 46.3896V46.9887C927.955 47.1621 927.167 47.2567 926.347 47.2567C925.054 47.2567 923.887 47.0203 922.894 46.5788C922.232 45.7748 921.917 44.7973 921.917 43.473C921.917 39.5315 924.739 36.8671 928.854 36.8671C931.486 36.8671 934.309 37.9549 936.011 39.1058V33.6036L932.732 30.3243C930.651 29.3941 927.797 29 925.827 29C918.858 29 913.577 33.9031 913.577 40.8085C913.577 44.3558 914.98 47.3671 917.266 49.5901L919.82 52.0811C922.185 54.3829 925.196 55.5968 928.822 55.5968ZM919.252 40.9031C919.252 43.1419 920.182 44.9076 921.98 46.0901C921.554 45.3648 921.349 44.5293 921.349 43.4572C921.349 39.2162 924.455 36.2995 928.869 36.2995C931.108 36.2995 933.489 37.0563 935.444 38.1284V33.8243L932.874 31.2545V36.1261C931.502 35.0856 928.948 34.3604 926.599 34.3604C922.2 34.3604 919.252 36.9302 919.252 40.9031ZM925.685 50.2049C920.088 50.2049 916.131 46.295 916.131 40.7928C916.131 35.4009 920.182 31.5383 925.842 31.5383C927.277 31.5383 929.264 31.7905 930.588 32.232V32.8153C929.327 32.3423 927.309 32.0743 925.842 32.0743C920.498 32.0743 916.714 35.7004 916.714 40.7928C916.714 46.0112 920.403 49.6689 925.685 49.6689C927.324 49.6689 929.453 49.2748 931.092 48.6441V41.3919H927.245V40.8558H931.66V48.991C929.973 49.7162 927.577 50.2049 925.685 50.2049ZM919.536 51.0721C922.279 53.8468 925.007 55.0293 928.822 55.0293C931.565 55.0293 934.986 54.3198 936.831 53.3738V42.259L934.104 39.6576V50.5675C932.291 51.7342 928.649 52.6171 925.637 52.6171C923.556 52.6171 921.412 52.0653 919.536 51.0721ZM928.649 45.8063L928.318 45.7905L925.89 43.536H928.649V45.8063ZM965.761 43.9302C965.761 50.3468 960.432 55.5968 953.937 55.5968C950.374 55.5968 947.914 54.4617 944.903 51.482L942.806 49.4009C940.568 47.1937 939.133 44.2297 939.133 40.7928C939.133 34.2658 944.43 29 950.957 29C954.347 29 957.358 30.4662 959.581 32.6892L962.167 35.2905C964.579 37.7027 965.761 40.5563 965.761 43.9302ZM950.957 50.1892C945.786 50.1892 941.671 46.027 941.671 40.7928C941.671 35.5743 945.723 31.4752 950.957 31.4279C956.144 31.4279 960.243 35.5901 960.243 40.7928C960.243 46.027 956.128 50.1892 950.957 50.1892ZM959.66 40.7928C959.66 45.7432 955.829 49.6531 950.957 49.6531C946.086 49.6531 942.255 45.7432 942.255 40.7928C942.255 35.8581 946.086 31.964 950.957 31.964C955.829 31.964 959.66 35.8581 959.66 40.7928ZM947.552 46.232C945.739 45.0338 944.809 43.1261 944.777 40.777C944.793 37.1667 947.489 34.3919 950.957 34.3919C953.054 34.4234 954.883 35.3694 956.034 37.0248C955.356 36.6779 954.631 36.4887 953.779 36.4887C949.995 36.4887 947.032 39.5631 947.032 43.4572C947.032 44.5923 947.221 45.4594 947.552 46.232ZM945.266 51.1193C948.056 53.9887 950.579 55.0293 953.937 55.0293C960.117 55.0293 965.194 50.0315 965.194 43.9302C965.194 40.4302 963.98 37.7973 961.347 35.2275C962.324 36.9932 962.718 38.6644 962.782 40.7928C962.782 47.3198 957.484 52.6171 950.957 52.6171C948.939 52.6171 947 52.0653 945.266 51.1193ZM950.957 47.2252C950.059 47.2252 949.239 47.0518 948.498 46.7365C947.867 45.9009 947.599 44.9549 947.599 43.4572C947.599 39.8468 950.311 37.0563 953.779 37.0563C954.867 37.0563 955.75 37.3401 956.554 37.9707C956.932 38.8063 957.137 39.7522 957.137 40.7928C957.137 44.4031 954.41 47.2252 950.957 47.2252ZM978.8 55.2184H973.266L969.955 51.9076V37.8131H967.338L964.027 34.5022V29.4414H981.259L984.57 32.7522V37.8131H978.8V55.2184ZM973.486 54.6509L970.917 52.0811H975.505V34.6757H981.432V30.4032L984.002 32.973V37.2455H978.232V54.6509H973.486ZM972.446 32.3108V49.7477H973.014V32.3108H979.115V31.7905H966.345V32.3108H972.446ZM967.559 37.2455L964.989 34.6757H969.955V37.2455H967.559ZM1001.22 55.2184H995.685L992.374 51.9076V43.0473L983.561 29.4414H990.34L995.574 32.6577L996.773 34.6599L999.878 29.4414H1006.36L1008.75 32.5315L1001.22 43.9144V55.2184ZM995.905 54.6509L993.336 52.0811H997.923V43.0473L1006.23 30.214L1008.06 32.5631L1000.65 43.7567V54.6509H995.905ZM991.097 30.5766L995.149 37.3716L996.441 35.2117L995.164 33.0676L991.097 30.5766ZM994.865 49.7477V42.4324L988.164 31.7748H988.827L995.149 41.9279L1001.5 31.7748H1002.16L995.432 42.464V49.7477H994.865ZM1018.89 55.2184H1013.36L1010.05 51.9076V29.4414H1018.97C1021.64 29.4414 1023.89 30.4347 1025.45 31.9955L1027.99 34.5338C1029.58 36.1261 1030.31 37.9549 1030.31 40.3671C1030.31 44.9392 1026.36 48.5338 1021.32 48.5338H1018.89V55.2184ZM1012.54 49.7477V31.6802H1018.97C1022.52 31.6802 1024.96 33.9347 1024.96 37.2297C1024.96 40.7612 1022.3 43.3311 1018.66 43.3311H1013.11V49.7477H1012.54ZM1018.66 42.795H1013.11V32.2162H1018.97C1022.2 32.2162 1024.38 34.2342 1024.38 37.2297C1024.38 40.4617 1021.97 42.795 1018.66 42.795ZM1013.58 54.6509L1011.01 52.0811H1015.6V45.554H1018.66C1023.68 45.554 1027.47 41.991 1027.48 37.2613C1027.48 36.1261 1027.28 35.1171 1026.84 34.1396C1029.06 36.2365 1029.74 37.6712 1029.74 40.3671C1029.74 44.6239 1026.07 47.9662 1021.32 47.9662H1018.32V54.6509H1013.58ZM1015.6 34.4549V40.5721H1018.01V36.8671H1021.81C1021.54 35.4482 1020.41 34.4865 1018.91 34.4549H1015.6ZM1018.58 40.5721V37.4347H1021.87V37.545C1021.87 39.232 1020.55 40.5721 1018.84 40.5721H1018.58ZM1050.83 55.2184H1035.43L1032.12 51.9076V29.4414H1047.08L1050.39 32.7522V37.0248H1040.74V37.9865H1045.6L1048.91 41.2973V46.0112H1040.74V46.973H1047.52L1050.83 50.2838V55.2184ZM1037.61 37.9865V34.4865H1047.25V30.4032L1049.82 32.973V36.4572H1040.18V37.9865H1037.61ZM1034.56 31.6959V49.795H1045.38V49.259H1035.13V40.8401H1043.45V40.304H1035.13V32.232H1044.94V31.6959H1034.56ZM1037.61 46.973V43.1576H1045.77V38.9482L1048.34 41.518V45.4437H1040.18V46.973H1037.61ZM1033.08 52.0811L1035.65 54.6509H1050.27V50.5045L1047.7 47.9347V52.0811H1033.08Z" fill="black"/>
<path d="M0 82H1920" stroke="#E9E9E9" stroke-linecap="square"/>
<path d="M0 140H1920" stroke="#E9E9E9" stroke-linecap="square"/>
</svg>
